<svg width="218" height="215" viewBox="0 0 218 215" fill="none" xmlns="http://www.w3.org/2000/svg">
<g id="Group">
<g id="Isolation Mode">
<g id="Group_2">
<g id="Group_3">
<g id="Vector" style="mix-blend-mode:multiply" opacity="0.5">
<path d="M131.502 193.184C112.809 191.959 89.1235 191.086 76.5182 197.938C73.8058 199.412 71.728 202.781 74.0805 204.674C80.3863 207.738 88.0531 206.605 95.0189 207.069C108.913 207.564 122.573 208.52 135.964 203.636C145.87 200.024 141.983 192.979 131.506 193.184H131.502Z" fill="#828A85"/>
</g>
<path id="Vector_2" d="M10.7098 68.0939C13.3749 56.8937 19.7628 50.1925 29.4252 44.3399C30.4388 43.6585 31.0009 42.8066 31.304 41.6235C33.9691 27.0443 42.0432 22.8576 53.9033 16.2353C55.9211 14.0141 58.7093 13.3484 61.3301 12.2126C71.4157 5.29057 84.2578 1.3279 95.979 7.00374C104.868 -0.334784 118.319 -2.48018 128.421 3.33763C133.031 5.53666 140.432 3.28084 145.693 3.81719C154.358 5.18961 163.774 10.1556 168.138 18.0147C168.643 19.0621 169.338 19.8067 170.503 20.0149C181.248 21.848 188.524 29.991 192.84 39.4655C193.475 40.7401 194.217 41.797 195.461 42.6079C201.366 46.4727 203.677 53.3759 205.376 59.8688C205.831 61.6419 206.481 63.1216 207.94 64.3679C223.813 79.8557 219.336 101.619 200.507 112.147C197.185 114.21 197.722 120.41 193.058 123.751C185.852 130.045 175.937 132.412 169.12 139.141C159.76 149.133 146.931 151.099 133.861 150.515C132.883 150.559 131.777 150.761 130.969 151.272C124.325 155.134 116.103 157.109 108.625 155.913C102.256 155.348 96.4211 152.294 90.0869 151.831C81.1791 151.992 71.9304 151.288 64.0457 146.716C60.4239 144.58 57.6199 141.571 55.0148 138.334C52.514 135.223 52.4982 135.207 48.5385 134.857C41.2285 134.21 34.5501 131.768 28.38 127.872C19.9744 122.764 12.936 113.854 13.457 103.572C13.7285 99.3284 14.8558 95.3215 16.8925 91.5892C17.3977 90.6616 17.524 89.8381 16.902 88.9421C13.6433 82.4586 10.3751 75.4703 10.7035 68.0939H10.7098Z" fill="#34805F"/>
<path id="Vector_3" d="M103.681 194.761C104.157 182.365 107.302 161.078 103.21 136.431C101.83 128.127 99.1588 120.091 95.4012 112.56C94.3749 110.5 93.3487 108.44 92.3982 106.351C90.892 103.824 90.1689 100.54 87.9207 98.5932C84.9083 96.8517 81.8612 95.1795 78.8424 93.4506C78.2141 93.0909 77.6646 93.2045 77.0142 93.3623C74.2007 94.0374 71.3872 94.7157 68.5422 95.2426C67.0423 95.5203 66.9381 95.3341 66.1487 93.6746C68.738 92.4378 71.7125 92.2517 74.4565 90.7247C71.2357 87.5665 67.5444 85.0362 64.4814 81.7298C64.4846 81.5847 64.4878 81.4995 64.4909 81.3543C64.8888 80.9694 65.2835 80.5845 65.8898 79.9945C72.3061 83.7332 78.3183 88.3269 85.1893 91.3273C83.3168 85.6609 81.1981 80.1744 79.3761 74.4954C76.4774 66.835 72.2082 59.648 68.1475 52.5335C67.4686 51.3756 67.8475 49.6593 68.9306 49.063C69.2432 49.0062 69.7831 49.3438 69.9758 49.6593C71.9619 52.9247 73.8723 56.2374 75.7669 59.5596C75.9848 59.4965 75.9532 59.506 76.1711 59.4429C75.9721 55.3035 75.6153 51.1737 75.3438 47.0375C75.2711 45.99 75.8174 45.3432 76.7426 44.9646C77.9015 44.4914 78.6119 44.9236 78.6782 46.2014C78.8456 51.5396 78.9972 56.881 79.2182 62.2161C82.0601 74.8109 87.9049 86.62 94.1728 97.877C95.8022 95.1638 96.4148 92.0719 97.1916 89.0683C97.5357 81.6036 92.7803 74.4733 91.9846 67.1411C93.876 66.3208 94.4223 66.3965 94.9812 68.1444C96.5348 72.2427 97.0368 76.849 98.922 80.7328C99.784 75.3472 100.352 69.9206 100.987 64.5035C101.154 63.0333 101.413 62.8345 103.273 62.9702C103.444 76.2464 102.878 89.7939 98.5651 102.499C98.1925 103.802 98.2809 104.78 99.0419 105.9C103.333 111.904 111.3 126.032 111.3 126.032C113.959 113.961 119.447 100.735 121.458 88.6739C119.15 73.7445 117.628 58.6731 118.06 43.548C117.849 41.5919 120.271 40.1185 120.94 41.9548C121.932 48.208 121.758 54.4075 122.904 60.6544C125.168 56.2059 126.649 51.7699 128.61 47.2267C129.251 45.6493 129.899 45.5104 131.304 46.8229C129.226 53.4705 126.697 60.0266 124.385 66.6016C124 67.668 123.83 68.687 124.06 69.8007C124.609 72.4415 125.127 75.0885 125.674 77.8081C132.665 66.1883 137.262 52.3442 143.798 40.1564C145.049 38.194 147.152 40.5098 148.901 40.9704C144.818 50.2429 141.509 59.7363 138.007 69.1761C144.995 65.6267 150.688 60.5377 156.274 55.1994C157.159 55.9819 157.348 56.2153 158.09 57.2155C127.634 90.2893 138.203 62.3739 124.111 115.425C129.084 113.374 133.413 110.166 138.134 107.601C139.378 106.866 139.842 105.547 140.35 104.288C142.643 98.6122 144.926 92.9363 147.225 87.2668C147.891 85.6262 148.33 85.3927 150.329 85.5852C147.903 91.1979 145.444 96.0945 143.694 102.092C150.332 97.7729 155.416 91.9583 161.526 86.9829C162.252 86.3361 162.893 85.9985 163.575 87.1027C160.664 91.6018 156.224 94.7568 152.921 99.0002C156.947 98.2683 160.945 97.5426 164.494 95.3247C166.698 100.565 151.241 101.897 148.159 103.95C144.926 106.881 141.718 109.841 138.374 112.911C148.087 112.816 158.103 111.276 166.799 106.629C167.689 106.143 168.551 105.689 169.297 107.036C158.962 113.532 146.846 116.993 134.72 118.104C130.309 117.826 127.05 120.909 123.567 123.139C121.297 124.972 118.493 150.181 118.095 156.91C117.555 178.506 119.333 187.387 119.665 194.925C119.747 196.815 103.538 198.361 103.677 194.767L103.681 194.761Z" fill="#9E8A74"/>
<g id="Group_4">
<path id="Vector_4" d="M163.474 70.1524C161.757 72.241 160.092 74.336 158.34 76.3583C157.503 77.3237 157.067 77.2922 155.927 76.5255C155.122 75.9829 154.083 76.0649 153.382 75.0711C152.397 73.6766 152.596 72.0738 153.123 70.9412C154.083 68.8747 155.495 67.2088 157.478 66.0352C160.692 67.2309 162.628 68.4961 163.474 70.1556V70.1524Z" fill="#82BD6A"/>
<path id="Vector_5" d="M81.1477 101.479C81.2424 103.113 80.4593 104.079 79.5373 104.883C77.9395 106.275 76.3039 107.634 74.5861 108.874C73.0925 109.95 71.4443 110.676 69.5781 109.568C69.0476 107.713 69.4423 106.142 70.8317 104.83C72.0442 103.684 73.2788 102.558 74.463 101.381C75.7008 100.151 77.2133 100.255 78.7005 100.529C79.5468 100.684 80.3362 101.154 81.1477 101.482V101.479Z" fill="#A8D687"/>
<path id="Vector_6" d="M70.3673 38.584C70.0042 38.1234 69.7358 37.7826 69.3916 37.3441C69.0695 37.6028 68.7569 37.8552 68.457 38.0981C66.0666 36.6374 65.5645 34.1102 64.7278 31.785C64.5541 31.3054 64.4909 30.7848 64.3173 30.3053C63.9762 29.3746 64.0931 28.6142 64.8383 27.8728C65.6435 27.0746 66.3571 27.5289 67.1213 27.8286C67.2413 27.8759 67.3644 27.9106 67.456 27.9422C67.8759 27.6961 68.2612 27.3144 68.6843 27.2733C69.0001 27.2418 69.379 27.6204 69.6979 27.8602C71.1978 28.9865 71.2925 29.1916 72.003 31.7345C72.7166 34.2932 71.8704 36.4449 70.3673 38.5871V38.584Z" fill="#3A9C4A"/>
<path id="Vector_7" d="M81.1254 122.518C82.9158 123.209 83.5662 124 83.582 125.871C83.601 128.26 82.7484 129.878 81.0717 131.323C80.7022 131.642 80.4496 132.102 80.1686 132.519C79.7739 133.099 79.4771 133.765 79.0097 134.276C77.7783 135.62 75.7131 135.368 74.6743 133.853C74.2638 133.254 74.1785 132.715 74.5543 132.09C75.0469 131.273 75.4763 130.415 75.9973 129.616C76.9099 128.215 77.8446 126.827 78.8171 125.468C79.5244 124.483 80.3075 123.556 81.1222 122.518H81.1254Z" fill="#82BD6A"/>
<path id="Vector_8" d="M121.35 21.0833C121.906 22.1402 122.418 22.7933 122.595 23.5284C122.8 24.3739 122.882 25.3236 122.715 26.166C122.44 27.5384 121.935 28.8666 121.477 30.1949C121.385 30.4599 121.091 30.6902 120.842 30.8606C120.261 31.255 119.648 31.6052 119.045 31.9775C117.792 31.6777 116.532 31.378 115.266 31.0783C115.411 27.898 116.459 25.1974 117.302 22.4683C117.902 20.528 119.276 20.2156 121.354 21.0833H121.35Z" fill="#379473"/>
<path id="Vector_9" d="M137.743 36.1623C136.397 34.9192 136.915 33.3764 136.808 32.004C136.761 31.4077 136.972 30.7136 137.275 30.1804C138.349 28.2874 139.419 26.3786 140.676 24.6055C141.412 23.5644 143.515 23.9682 144.048 25.2933C144.718 26.9591 145.233 28.6723 143.9 30.4359C142.991 31.6348 142.413 33.0609 141.415 34.2598C140.752 35.058 140.262 35.7048 139.167 35.7269C138.74 35.7363 138.317 35.9793 137.749 36.1623H137.743Z" fill="#A8D687"/>
<path id="Vector_10" d="M110.39 37.8021C111.625 38.3353 112.632 38.2912 113.462 37.5781C114.564 38.9947 114.413 40.3167 114.103 41.7459C113.639 43.8818 113.128 45.9862 111.906 47.8256C111.082 49.0623 110.359 50.5199 108.297 50.3401C108.012 49.9394 107.646 49.4251 107.286 48.9046C106.775 48.1631 106.756 47.4122 107.046 46.5415C107.652 44.7242 108.063 42.8375 108.71 41.0392C109.111 39.9223 109.803 38.9127 110.39 37.8021Z" fill="#83BF57"/>
<path id="Vector_11" d="M180.389 92.6334C180.01 90.9676 180.121 90.5448 181.213 89.8318C181.371 89.7276 181.529 89.5762 181.699 89.5541C184.257 89.2323 186.849 88.7685 189.369 89.5226C190.62 89.898 191.756 90.7025 192.874 91.4219C193.392 91.7563 193.184 92.829 192.514 92.9804C191.456 93.2202 190.787 93.7566 190.092 94.5611C189.679 95.0407 188.681 95.2457 187.97 95.1984C186.319 95.0848 184.639 94.9018 183.063 94.4381C182.119 94.1604 181.343 93.3022 180.392 92.6365L180.389 92.6334Z" fill="#309156"/>
<path id="Vector_12" d="M154.525 139.797C153.392 139.551 152.814 138.605 152.283 137.535C151.447 135.85 150.79 134.112 150.733 132.235C150.705 131.374 150.913 130.455 151.216 129.641C151.481 128.935 152.129 128.626 152.956 128.909C155.397 129.752 157.121 131.399 158.195 133.689C158.419 134.169 158.239 134.917 158.068 135.488C157.522 137.305 156.562 138.848 154.529 139.797H154.525Z" fill="#82BD6A"/>
<path id="Vector_13" d="M172.868 27.9512C173.43 29.7022 173.124 31.081 172.369 32.507C171.539 34.0814 170.973 35.7977 170.263 37.4351C170.064 37.8957 169.802 38.3469 169.489 38.7381C168.596 39.8582 167.484 40.2999 166.698 39.9055C166.145 39.6278 165.157 37.7317 165.438 37.025C166.644 34.0119 167.964 31.0431 169.249 28.0648C169.293 27.967 169.445 27.9133 169.303 28.0175C170.19 28.0175 170.932 28.2225 171.444 27.9638C172.041 27.6641 172.249 29.1091 172.865 27.948L172.868 27.9512Z" fill="#82BD6A"/>
<path id="Vector_14" d="M184.33 100.495C185.741 100.842 186.887 101.035 187.971 101.413C189.076 101.802 189.227 103 189.549 103.903C190.026 105.25 189.502 106.531 188.529 107.547C187.74 108.37 186.764 108.326 185.707 108.02C183.484 107.376 181.513 106.452 180.408 104.243C179.89 103.212 179.887 102.486 180.841 101.966C181.999 101.335 183.281 100.924 184.333 100.492L184.33 100.495Z" fill="#3A9C4A"/>
<path id="Vector_15" d="M185.72 73.0595C185.016 72.8544 184.352 72.5799 183.664 72.4821C182.887 72.3717 182.028 72.378 181.773 71.4883C181.488 70.4945 181.792 69.488 182.575 68.8507C183.749 67.8916 185.031 67.0524 186.32 66.2447C187.349 65.5979 188.457 65.0711 189.443 64.541C190.125 64.6609 190.744 64.7524 191.353 64.8786C192.329 65.0805 192.774 65.8062 192.367 66.718C192.06 67.3994 191.625 68.0494 191.135 68.6173C189.626 70.3683 187.917 71.8953 185.72 73.0595Z" fill="#4B9C7E"/>
<path id="Vector_16" d="M137.685 11.0137C139.529 11.7109 139.94 13.3042 140.578 14.7334C140.603 14.7902 140.6 14.8596 140.612 14.9227C140.887 16.1121 138.787 21.1601 137.647 21.4378C136.416 21.7375 135.061 21.6302 133.773 21.5324C133.129 21.4819 132.788 20.7563 133.037 20.1916C134.414 17.0776 134.723 13.4115 137.685 11.0168V11.0137Z" fill="#4B9C7E"/>
<path id="Vector_17" d="M180.105 37.9004C180.557 38.5472 181.166 39.1277 181.406 39.8312C181.782 40.9229 181.305 41.9451 180.674 42.8758C179.505 44.5984 178.091 46.0497 176.209 46.9994C175.564 47.3244 175.018 47.5105 174.295 46.9079C173.774 46.4725 172.896 46.4662 172.183 46.2706C172.183 43.1314 176.013 38.9573 180.102 37.9004H180.105Z" fill="#23674E"/>
<path id="Vector_18" d="M164.595 117.781C165.646 117.68 166.764 116.948 167.999 117.677C169.786 118.731 171.469 119.923 172.549 121.718C173.193 122.788 172.195 123.731 171.832 124.643C171.434 125.646 170.332 126.154 169.271 125.738C168.169 125.306 167.149 124.621 166.177 123.924C165.675 123.564 165.375 122.936 164.961 122.447C163.815 121.091 163.218 119.665 164.592 117.781H164.595Z" fill="#379473"/>
<path id="Vector_19" d="M24.8467 95.131C25.1814 94.8912 25.6329 94.7082 25.8729 94.3738C27.5749 91.9918 30.1042 92.036 32.605 92.0896C33.0471 92.0991 33.6439 92.4366 33.887 92.8058C34.6986 94.0394 35.3806 95.355 36.009 96.4624C34.9859 98.0714 33.5113 97.7433 32.2293 97.8474C30.6947 97.9736 29.1379 97.9642 27.6033 97.8474C26.0876 97.7339 25.2572 96.8284 24.8467 95.131Z" fill="#379473"/>
<path id="Vector_20" d="M79.8714 28.5009C77.5632 28.0876 77.1495 27.7658 77.1369 25.4594C77.1274 23.7558 77.4685 22.0521 77.6927 20.3515C77.7306 20.0549 77.9011 19.7174 78.1189 19.5154C78.9052 18.7803 79.7357 18.0957 80.6388 17.3164C82.1102 17.8023 82.9344 18.957 82.8112 20.9352C82.7133 22.5253 82.4102 24.1028 82.2334 25.6898C82.0692 27.1663 80.8756 27.75 79.8683 28.5009H79.8714Z" fill="#82BD6A"/>
<path id="Vector_21" d="M55.6427 34.8245C54.6543 36.0738 53.9281 36.9919 53.1513 37.9763C49.9242 36.79 49.1348 33.5467 47.6854 30.8618C47.3917 30.316 47.6823 29.5146 48.3043 28.9309C49.2832 28.016 50.3852 27.5711 51.5788 28.1106C52.3398 28.4545 53.1292 29.1171 53.5081 29.8427C54.367 31.4802 54.9796 33.2438 55.6364 34.8245H55.6427Z" fill="#379473"/>
<path id="Vector_22" d="M57.7529 56.0545C58.0813 53.7577 59.7833 52.9941 61.8042 54.3729C63.7272 55.6885 65.066 57.5657 66.3543 59.6701C65.6186 59.973 65.006 60.2254 64.2482 60.5377C65.0755 61.4527 64.1724 62.1247 64.0587 63.1911C61.3937 60.9637 58.0434 59.8436 56.793 56.1965C57.2066 56.1365 57.4813 56.0955 57.7529 56.0545Z" fill="#309156"/>
<path id="Vector_23" d="M182.111 58.9458C181.454 58.1823 180.933 57.6712 180.532 57.0749C180.219 56.608 180.049 56.0653 180.506 55.5069C181.681 54.0714 182.72 52.5128 184.002 51.1845C186.004 49.1085 187.602 49.1969 189.698 51.3139C188.047 54.7718 185.615 57.4314 182.107 58.9427L182.111 58.9458Z" fill="#82BD6A"/>
<path id="Vector_24" d="M28.1333 83.801C28.0955 82.5138 29.6017 81.0782 30.8994 81.3149C33.3119 81.7566 35.6422 82.4822 37.4358 84.3058C38.4115 85.2996 38.3262 85.8517 37.2179 86.7919C36.198 87.6564 35.2475 88.2148 33.7729 87.6185C32.4309 87.0759 30.9184 86.9591 29.4848 86.65C29.3048 86.6121 28.9796 86.4796 28.9828 86.4701C29.2859 85.47 27.8523 85.2302 28.0323 84.2995C28.067 84.1133 28.1049 83.9272 28.127 83.801H28.1333Z" fill="#A8D687"/>
<path id="Vector_25" d="M27.5433 69.9741C27.1896 70.3874 26.9465 70.6714 26.7096 70.9459C25.9097 70.5399 25.4076 69.828 25.2034 68.8099C23.8393 68.873 22.9583 68.0054 22.3458 67.0179C21.8153 66.1629 22.7499 65.8569 23.4351 65.6739C23.3909 64.9766 23.3594 64.4182 23.3246 63.8661C23.5362 63.7146 23.672 63.5537 23.8393 63.5159C24.0825 63.4559 24.4014 63.5758 24.5877 63.4591C25.1055 63.1373 25.5445 62.3801 26.2234 62.8312C26.9875 63.3423 27.758 63.9733 28.2474 64.7305C28.6737 65.3962 29.0431 65.9515 29.7789 66.3238C30.7735 66.8255 31.3924 68.8005 30.9883 69.7911C30.5778 70.7913 29.6399 71.1541 28.6263 70.6745C28.2853 70.5136 27.9822 70.2644 27.5464 69.9773L27.5433 69.9741Z" fill="#309156"/>
<path id="Vector_26" d="M30.1484 106.644C30.5874 106.123 30.9063 105.663 31.3041 105.284C32.0841 104.546 32.9209 103.934 33.4577 102.905C34.1429 101.596 37.591 100.965 38.9046 101.706C39.9498 102.299 40.174 104.521 39.2267 105.622C38.8225 106.095 38.2857 106.511 37.7236 106.783C36.5174 107.363 35.248 107.811 34.0229 108.357C32.7851 108.906 31.7967 108.644 30.9947 107.568C30.8052 107.316 30.5716 107.101 30.1516 106.644H30.1484Z" fill="#379473"/>
<path id="Vector_27" d="M139.072 122.062C139.637 121.192 140.028 120.081 140.811 119.513C141.74 118.838 142.81 119.299 143.795 120.009C145.084 120.936 145.529 122.04 145.039 123.492C144.594 124.807 144.155 126.145 143.511 127.366C142.659 128.981 141.143 129.199 140.079 128.007C139.918 127.827 139.747 127.584 139.731 127.36C139.608 125.64 139.526 123.918 139.428 122.195C139.308 122.151 139.188 122.11 139.068 122.066L139.072 122.062Z" fill="#A8D687"/>
<path id="Vector_28" d="M45.2138 114.115C45.5043 114.286 45.8991 114.488 46.2653 114.734C47.2695 115.409 47.5126 116.437 46.7074 117.346C44.5949 119.719 41.9236 120.971 38.7154 120.801C37.2029 120.722 36.8934 119.917 37.7176 118.63C37.8881 118.365 38.1344 118.106 38.1881 117.816C38.5291 115.974 40.0479 115.45 41.491 114.958C42.6719 114.554 43.935 114.393 45.2107 114.115H45.2138Z" fill="#83BF57"/>
<path id="Vector_29" d="M103.996 30.3436C103.945 30.0281 103.911 29.7095 103.838 29.4003C103.361 27.3748 104.757 26.239 105.988 25.0874C106.222 24.8665 107.15 24.9423 107.343 25.1947C108.328 26.4851 109.585 27.706 108.843 29.6464C108.555 30.3972 108.612 31.2775 108.495 32.0978C108.35 33.1074 108.192 34.0665 107.191 34.7007C105.761 35.603 104.375 35.0919 104.027 33.4166C103.923 32.9181 103.914 32.3975 103.892 31.8833C103.87 31.3753 103.888 30.8642 103.888 30.3531C103.926 30.3531 103.961 30.3499 103.999 30.3468L103.996 30.3436Z" fill="#83BF57"/>
<path id="Vector_30" d="M130.231 27.7746C132.447 28.759 132.141 30.7687 132.51 32.4693C132.555 32.6775 132.378 32.9551 132.258 33.176C131.557 34.4695 130.872 35.7726 130.123 37.0377C129.684 37.7823 129.106 38.388 128.087 37.8959C127.575 37.2617 127.954 35.8861 126.505 35.9524C126.407 35.9555 126.135 35.394 126.195 35.1573C126.542 33.7502 126.887 32.3336 127.386 30.9738C127.907 29.5604 128.873 28.4561 130.231 27.7715V27.7746Z" fill="#309156"/>
<path id="Vector_31" d="M55.4479 122.631C55.35 121.603 55.7605 120.776 56.5183 120.114C57.0962 119.609 57.6898 119.123 58.2898 118.646C59.2087 117.918 61.7379 117.703 62.5873 118.419C62.9347 118.713 63.1715 119.46 63.0705 119.915C62.4674 122.622 60.7433 124.43 58.1919 125.436C57.0457 125.887 55.6879 125.032 55.4574 123.786C55.3879 123.414 55.4479 123.019 55.4479 122.634V122.631Z" fill="#82BD6A"/>
<path id="Vector_32" d="M100.65 48.201C100.65 48.5228 100.675 48.8478 100.643 49.1664C100.539 50.2202 99.8603 51.2203 98.9761 51.274C98.1078 51.3276 97.3468 51.3023 96.4974 50.4505C95.2817 49.2327 95.2122 48.1158 95.5375 46.6897C95.7648 45.6865 95.9164 44.6674 96.1279 43.661C96.4279 42.2317 96.6995 42.0551 98.1994 42.2601C100.176 42.5315 100.122 42.5346 100.249 44.6011C100.321 45.8 100.602 46.9863 100.789 48.1789C100.741 48.1852 100.697 48.1947 100.65 48.201Z" fill="#4B9C7E"/>
<path id="Vector_33" d="M93.052 58.1365C93.052 58.4583 93.0773 58.7833 93.0457 59.102C92.9415 60.1557 92.2626 61.1559 91.3785 61.2095C90.5101 61.2631 89.7491 61.2379 88.8997 60.386C87.684 59.1682 87.6146 58.0514 87.9398 56.6253C88.1672 55.622 88.3187 54.6029 88.5303 53.5965C88.8303 52.1673 89.1018 51.9906 90.6017 52.1957C92.5784 52.467 92.5247 52.4702 92.651 54.5367C92.7237 55.7356 93.0047 56.9219 93.191 58.1145C93.1436 58.1208 93.0994 58.1302 93.052 58.1365Z" fill="#379473"/>
<path id="Vector_34" d="M154.525 31.1322C151.927 30.9902 151.222 30.1415 151.696 27.6144C151.942 26.3019 152.419 25.0336 152.725 23.7306C152.953 22.762 153.528 22.2099 154.409 21.806C155.981 21.0867 156.881 21.5 157.067 23.2195C157.162 24.1029 157.225 25.0494 157.01 25.8917C156.537 27.7406 155.991 29.5989 154.525 31.1353V31.1322Z" fill="#83BF57"/>
<path id="Vector_35" d="M96.2603 31.0348C96.6518 33.1013 94.2709 35.2152 92.2343 34.8397C91.3564 34.6788 90.4281 33.6345 90.4849 32.7322C90.5386 31.9056 90.7312 31.0758 90.6744 30.2587C90.5512 28.4761 91.5332 27.4476 92.8942 26.5831C93.5352 26.1761 94.0752 26.1824 94.5741 26.7566C95.9224 28.3026 96.1813 28.9715 96.2603 31.0348Z" fill="#23674E"/>
<path id="Vector_36" d="M134.72 99.0932C133.855 99.1469 132.86 98.0174 133.217 97.1088C134.152 94.7394 135.184 92.4015 136.331 90.1299C136.801 89.196 137.619 89.2718 138.471 90.0605C140.098 91.5654 140.177 91.9156 139.191 93.7897C138.535 95.0391 137.726 96.2222 137.189 97.5189C136.697 98.7083 135.547 98.5884 134.717 99.0932H134.72Z" fill="#23674E"/>
<path id="Vector_37" d="M58.5763 47.431C58.0616 47.8569 57.5343 48.2986 56.8459 48.8665C55.7818 48.2071 54.724 47.5509 53.7451 46.9451C53.8651 45.7368 53.963 44.7429 54.0767 43.5945C55.6934 43.1118 57.3512 42.5344 59.0531 42.1338C60.1583 41.875 61.1403 42.6133 61.1624 43.7586C61.1845 44.9543 61.0046 46.1785 60.733 47.3458C60.5277 48.226 59.9752 48.2166 58.5763 47.431Z" fill="#3A9C4A"/>
<path id="Vector_38" d="M111.798 18.6164C111.401 19.077 111.044 19.6165 110.57 20.0204C109.455 20.9669 108.919 20.7681 107.908 19.6418C106.162 17.6951 106.017 15.4866 106.787 13.2024C107.033 12.4736 107.823 11.7069 108.546 11.4135C109.421 11.057 110.283 11.6786 110.801 12.4736C111.025 12.8175 111.23 13.3602 111.116 13.7072C110.554 15.433 111.034 16.9853 111.798 18.6195V18.6164Z" fill="#A8D687"/>
<path id="Vector_39" d="M48.9304 57.8385C47.5252 59.5327 46.3853 59.8545 44.5728 59.2771C43.4676 58.9238 42.4982 58.378 41.5036 57.7943C40.3415 57.1128 40.0763 56.0811 39.8079 54.9927C39.6216 54.2355 40.3163 53.5161 41.0994 53.5098C41.9583 53.5035 42.6151 54.144 43.5813 54.0493C44.4307 53.9641 45.4001 54.4595 46.2274 54.8728C47.6736 55.5984 47.6452 55.6552 48.9335 57.8385H48.9304Z" fill="#82BD6A"/>
<path id="Vector_40" d="M108.859 101.987C108.266 101.709 108.405 100.381 107.192 100.804C107.022 100.864 106.412 100.17 106.273 99.7407C105.828 98.362 106.242 95.2385 108.038 93.9797C109.513 92.9448 111.13 93.6074 111.439 95.3773C111.742 97.1126 111.903 98.8163 111.041 100.454C110.577 101.331 110.053 102.11 108.856 101.99L108.859 101.987Z" fill="#3A9C4A"/>
<path id="Vector_41" d="M161.061 39.8182C160.717 40.7457 160.357 41.4966 160.158 42.2885C159.498 44.9198 157.433 45.9073 155.238 46.7528C154.588 45.9609 154.004 45.2479 153.249 44.3298C154.408 42.8406 155.589 41.2884 156.811 39.7677C157.045 39.4774 157.405 39.266 157.746 39.0925C159.656 38.1176 160.208 38.1681 161.061 39.8182Z" fill="#3A9C4A"/>
<path id="Vector_42" d="M170.718 60.3184C172.416 60.5455 173.923 60.7474 175.423 60.9494C175.448 62.4291 174.409 63.1263 173.629 63.8835C172.536 64.9467 171.286 65.8617 170.051 66.7672C169.461 67.1994 168.839 67.6979 167.971 67.1142C167.178 66.581 166.824 65.8081 166.922 65.0162C167.014 64.2495 167.383 63.3976 167.901 62.8266C168.788 61.8422 169.884 61.0472 170.718 60.3184Z" fill="#3A9C4A"/>
<path id="Vector_43" d="M57.8913 81.0951C57.9892 81.8145 58.106 82.6695 58.226 83.5655C55.1978 84.9442 52.539 87.2411 49.1035 85.1367C49.333 83.7695 50.5202 82.6916 52.6653 81.9028C52.5706 81.6977 52.479 81.4927 52.3464 81.2056C54.1052 80.1581 55.8735 80.0445 57.8913 81.0951Z" fill="#3A9C4A"/>
<path id="Vector_44" d="M90.958 18.5946C91.1317 17.5945 91.3148 16.5944 91.479 15.5911C91.6116 14.7771 92.1516 14.4206 92.8873 14.2155C94.7093 13.7012 95.2303 13.9158 95.4734 15.793C95.704 17.5945 95.6661 19.4307 95.6882 21.2511C95.6882 21.4972 95.4166 21.8506 95.1798 21.9831C93.2726 23.0242 91.3653 21.9579 91.1696 19.7683C91.1348 19.3865 91.119 19.0016 91.0938 18.6199C91.0496 18.6136 91.0054 18.6072 90.9612 18.5978L90.958 18.5946Z" fill="#379473"/>
<path id="Vector_45" d="M85.2083 42.9916C84.6557 43.1651 84.1031 43.2787 83.5979 43.509C82.72 43.9065 82.0885 43.4301 81.8833 42.7739C81.2075 40.5969 81.1728 38.3348 81.5896 36.1105C81.798 35.0063 83.3452 34.6498 84.4252 35.4638C84.943 35.855 85.423 36.5333 85.5556 37.1612C85.9724 39.1141 85.9945 41.0891 85.2051 42.9947L85.2083 42.9916Z" fill="#82BD6A"/>
<path id="Vector_46" d="M110.422 83.4967C109.62 81.2787 110.997 76.3475 112.917 74.1484C114.78 74.4576 115.468 75.0949 115.048 76.8428C114.565 78.862 113.716 80.8086 112.892 82.73C112.453 83.7586 111.354 83.3453 110.419 83.4967H110.422Z" fill="#379473"/>
<path id="Vector_47" d="M194.504 78.83C193.989 78.1674 193.481 77.5112 192.922 76.7855C193.803 75.0282 195.246 73.7851 196.961 72.9049C198.464 72.1319 199.36 72.46 200.598 73.8924C200.364 74.9241 200.213 75.9337 199.206 76.6719C197.103 78.2053 195.89 78.8394 194.507 78.83H194.504Z" fill="#A8D687"/>
<path id="Vector_48" d="M116.112 93.6329C114.922 93.5951 114.328 93.1155 114.312 92.0964C114.303 91.2698 114.227 90.4022 114.448 89.6261C114.817 88.3325 115.351 87.0768 115.91 85.8495C116.241 85.1239 116.759 84.5875 117.738 84.9977C118.578 85.351 119.718 85.6003 119.349 86.7456C118.559 89.1907 118.136 91.8661 116.109 93.6266L116.112 93.6329Z" fill="#379473"/>
<path id="Vector_49" d="M109.216 61.7388C109.216 61.0321 109.166 60.319 109.226 59.6186C109.333 58.3566 110.04 57.5773 111.25 57.3849C111.995 57.265 112.727 57.4511 112.986 58.2304C113.242 59.0034 113.479 59.8521 113.422 60.644C113.327 61.9155 113.009 63.1775 112.737 64.43C112.582 65.143 112.124 65.6257 111.348 65.367C110.596 65.1178 109.374 65.6068 109.26 64.2407C109.191 63.4109 109.248 62.5717 109.248 61.7388C109.238 61.7388 109.226 61.7388 109.216 61.7388Z" fill="#82BD6A"/>
<path id="Vector_50" d="M169.088 49.4249C170.556 51.3936 169.06 52.8859 168.046 54.3246C166.991 55.8264 166.189 55.8863 163.881 55.2364C163.805 54.7158 163.786 54.1416 163.625 53.6084C163.366 52.7629 163.578 52.1666 164.216 51.5513C165.128 50.6742 165.927 49.6804 166.774 48.7402C167.655 48.9989 168.378 49.2135 169.091 49.4249H169.088Z" fill="#379473"/>
<path id="Vector_51" d="M141.244 141.254C139.292 139.658 139.775 137.866 140.088 136.127C140.344 134.707 140.559 133.215 142.463 132.938C143.044 133.288 143.688 133.673 144.351 134.073C144.73 135.865 144.221 137.569 143.565 139.118C143.195 139.995 142.049 140.544 141.241 141.254H141.244Z" fill="#23674E"/>
<path id="Vector_52" d="M41.8758 76.6713C42.2168 76.441 42.5515 76.2139 42.9778 75.9236C43.1736 76.1318 43.3852 76.3495 43.5904 76.5735C43.7609 76.7565 43.9251 76.9427 44.0672 77.1036C44.0641 78.2268 42.0811 79.7159 40.7201 79.6654C37.8056 79.5519 35.8984 77.5674 36.2015 74.9582C39.0276 74.0495 40.2749 73.977 41.8726 76.6745L41.8758 76.6713Z" fill="#23674E"/>
<path id="Vector_53" d="M89.124 134.584C89.4493 131.805 90.5576 129.467 92.7711 127.744C94.6847 128.397 94.9278 128.47 94.5489 130.114C94.1257 131.947 93.2479 133.679 92.5311 135.439C92.4554 135.625 92.1206 135.707 91.9501 135.811C90.9839 135.392 90.0934 135.007 89.124 134.584Z" fill="#309156"/>
<path id="Vector_54" d="M175.003 74.7826C174.741 76.3916 173.837 77.0132 172.827 77.6221C171.959 78.1458 171.261 78.9377 170.437 79.5466C169.458 80.266 167.75 79.8558 167.383 78.7232C167.222 78.2278 167.431 77.3823 167.794 76.9942C168.874 75.8364 170.115 74.8268 171.138 73.9023C172.638 74.2431 173.822 74.5144 175.006 74.7826H175.003Z" fill="#82BD6A"/>
<path id="Vector_55" d="M175.057 82.9496C176.399 81.9022 177.589 80.6812 179.029 79.9556C179.935 79.4981 181.249 79.5896 182.266 80.2616C183.128 80.8326 183.317 81.9432 182.607 82.7004C182.146 83.1926 181.533 83.5901 180.917 83.8709C180.169 84.2116 179.345 84.3915 178.549 84.6376C176.569 85.2465 176.37 85.1613 175.06 82.9465L175.057 82.9496Z" fill="#379473"/>
<path id="Vector_56" d="M169.701 96.7661C171.043 95.7186 172.234 94.4976 173.674 93.772C174.58 93.3145 175.893 93.406 176.91 94.078C177.772 94.649 177.962 95.7596 177.251 96.5168C176.79 97.009 176.178 97.4065 175.562 97.6873C174.813 98.0312 173.986 98.2079 173.194 98.454C171.214 99.0629 171.015 98.9777 169.704 96.7629L169.701 96.7661Z" fill="#379473"/>
<path id="Vector_57" d="M35.9932 63.9074C33.8681 63.3615 32.5956 61.8598 31.5409 60.1813C30.8999 59.1591 32.0809 56.9096 33.2745 56.695C33.5523 56.6446 33.947 56.7045 34.1523 56.8749C36.0122 58.424 37.19 60.3264 36.8837 62.841C36.8363 63.2227 36.309 63.5477 35.9932 63.9074Z" fill="#83BF57"/>
<path id="Vector_58" d="M47.9286 97.0521C47.1834 97.1972 46.4288 97.295 45.6962 97.4938C44.9036 97.7083 44.2784 97.5348 43.9184 96.8091C43.5237 96.0109 43.669 95.301 44.531 94.872C46.0783 94.1021 47.6223 93.3165 49.198 92.6035C49.4854 92.4742 50.1674 92.553 50.24 92.7202C50.6758 93.7141 51.2189 94.7489 51.2663 95.7932C51.3042 96.664 50.3474 97.0868 49.4569 97.1656C48.958 97.2098 48.4497 97.1751 47.9476 97.1751C47.9413 97.1341 47.9349 97.0931 47.9286 97.0521Z" fill="#83BF57"/>
<path id="Vector_59" d="M75.5332 119.162C75.047 119.973 74.6744 120.623 74.2733 121.251C73.7997 121.992 73.3671 122.775 72.7924 123.431C72.3724 123.907 71.7946 124.425 71.2136 124.532C70.4557 124.674 70.02 124.059 69.7642 123.298C69.1642 121.525 69.8242 119.812 71.7346 118.484C72.044 118.269 72.4419 118.149 72.6819 117.881C73.1018 117.411 73.6134 116.973 74.1439 117.38C74.6965 117.806 75.0406 118.503 75.5332 119.162Z" fill="#23674E"/>
<path id="Vector_60" d="M129.353 129.896C129.618 128.871 129.798 127.811 130.177 126.827C130.515 125.95 131.424 125.713 131.983 126.388C132.76 127.325 133.903 128.13 133.606 129.663C133.464 130.408 133.574 131.196 133.48 131.953C133.366 132.865 132.504 133.66 131.727 133.686C130.887 133.711 129.64 132.714 129.548 131.862C129.482 131.231 129.536 130.587 129.536 129.95C129.476 129.931 129.416 129.915 129.356 129.896H129.353Z" fill="#83BF57"/>
<path id="Vector_61" d="M61.286 100.776C61.2039 99.9869 61.6018 99.3338 62.3722 98.8322C63.9984 97.7721 66.2403 97.8163 67.5224 98.9773C68.356 99.7314 68.4318 100.328 67.6455 101.063C66.3351 102.287 64.6489 102.789 62.9627 103.148C61.9112 103.372 61.2765 102.407 61.286 100.776Z" fill="#82BD6A"/>
<path id="Vector_62" d="M142.58 75.8477C143.862 75.8477 144.938 77.1948 144.585 78.2265C143.95 80.0722 142.93 81.6655 141.035 82.4668C140.751 82.5867 140.12 82.5426 140.038 82.3816C139.63 81.5677 139.163 80.7032 139.097 79.8261C139.052 79.2361 139.523 78.4852 139.981 78.012C140.574 77.3999 140.663 76.3114 141.736 76.1411C142.096 76.0843 142.434 75.8981 142.58 75.8477Z" fill="#83BF57"/>
<path id="Vector_63" d="M100.669 139.469C100.031 141.068 99.7591 142.703 98.3034 143.69C97.5614 144.195 96.8351 144.11 96.1815 143.57C95.5689 143.066 95.1016 142.52 95.5279 141.586C96.0741 140.381 96.3868 139.062 96.9899 137.891C97.634 136.645 98.395 136.686 99.2507 137.803C99.696 138.387 100.201 138.926 100.665 139.469H100.669Z" fill="#379473"/>
<path id="Vector_64" d="M202.354 97.3977C203.655 100.452 203.646 100.55 200.668 101.364C199.579 101.66 198.398 101.752 197.264 101.726C196.285 101.704 195.859 100.953 195.868 99.7829C195.875 98.8711 196.213 98.4199 197.232 98.3442C198.17 98.2748 199.076 97.8236 200.014 97.6375C200.804 97.4829 201.622 97.4671 202.354 97.3945V97.3977Z" fill="#A8D687"/>
<path id="Vector_65" d="M125.08 18.9004C124.034 18.4587 123.794 17.4144 123.807 16.5405C123.826 15.2154 123.981 13.783 124.53 12.6093C124.985 11.6376 126.229 11.2306 127.347 11.0098C128.692 13.7388 127.647 17.3008 125.08 18.8973V18.9004Z" fill="#83BF57"/>
<path id="Vector_66" d="M179.284 113.137C180.061 113.298 180.891 113.402 181.678 113.645C184.153 114.408 184.535 115.238 183.597 118.062C182.158 117.904 180.639 117.822 179.155 117.554C177.955 117.339 177.778 116.768 178.081 115.5C178.293 114.616 178.469 113.755 179.284 113.137Z" fill="#379473"/>
<path id="Vector_67" d="M195.717 85.7296C197.662 85.2059 199.49 84.6759 201.341 84.2342C202.105 84.0512 203.415 85.086 203.576 85.8685C203.785 86.8781 203.125 87.3355 202.338 87.4681C200.595 87.7646 198.833 88.0423 197.071 88.1022C195.985 88.1401 195.714 87.5154 195.72 85.7265L195.717 85.7296Z" fill="#83BF57"/>
<path id="Vector_68" d="M129.917 137.889C131.733 138.674 132.14 140.315 132.475 142.006C131.603 142.858 130.792 143.656 129.952 144.479C129.873 144.495 129.74 144.568 129.63 144.543C127.391 144.047 127.341 143.968 127.707 141.766C127.761 141.451 127.792 141.135 127.84 140.82C128.016 139.606 128.71 138.629 129.92 137.889H129.917Z" fill="#3A9C4A"/>
<path id="Vector_69" d="M83.2157 108.383C83.863 110.582 83.5978 111.399 81.9779 112.579C81.3116 113.065 80.6864 113.604 80.0612 114.103C79.4897 113.92 78.9592 113.762 78.435 113.582C77.4309 113.238 77.2351 112.8 77.8098 111.872C78.3434 111.011 78.9497 110.184 79.6002 109.405C80.3801 108.474 80.6169 108.443 83.2125 108.383H83.2157Z" fill="#4B9C7E"/>
<path id="Vector_70" d="M91.7571 113.039C92.7802 114.904 92.2718 118.418 90.7908 119.412C90.2035 119.807 89.3762 119.841 88.7099 120.024C87.008 117.374 88.17 114.765 91.7571 113.039Z" fill="#379473"/>
<path id="Vector_71" d="M51.8504 106.051C51.2852 107.001 51.2852 108.534 49.9242 108.663C48.5159 108.796 46.9055 109.843 45.6172 108.298C45.7245 107.711 45.8256 107.152 45.933 106.594C46.2077 105.202 47.3223 103.922 48.4212 104.193C49.5895 104.483 51.121 104.341 51.8472 106.048L51.8504 106.051Z" fill="#379473"/>
<path id="Vector_72" d="M48.0488 67.8793C48.4056 67.2231 48.5698 66.6331 48.753 66.6299C50.0571 66.5984 51.2949 65.7024 52.5958 66.1662C53.6568 66.5448 54.7304 67.0369 55.6114 67.7184C56.6282 68.504 56.2903 69.7565 55.0272 70.1793C54.5125 70.3528 53.84 70.5011 53.3789 70.315C51.6201 69.6019 49.9213 68.7501 48.0488 67.8793Z" fill="#379473"/>
<path id="Vector_73" d="M63.4647 111.748C62.3722 112.578 61.5354 113.366 60.5628 113.912C59.5177 114.499 58.2167 114.035 57.7399 113.111C57.3547 112.363 58.0399 110.584 59.0156 109.798C59.8997 109.085 60.8407 109.129 61.7343 109.972C62.268 110.473 62.7574 111.022 63.4616 111.754L63.4647 111.748Z" fill="#379473"/>
<path id="Vector_74" d="M41.9828 44.1406C43.1196 44.3962 44.0574 44.6107 45.2762 44.8852C45.952 45.6834 46.8866 46.794 47.8939 47.9897C47.856 48.1759 47.7834 48.5418 47.7076 48.911C46.814 49.523 44.7521 49.0025 43.3911 47.8257C41.7744 46.428 41.3923 45.3269 41.9797 44.1438L41.9828 44.1406Z" fill="#23674E"/>
<path id="Vector_75" d="M157.156 122.28C156.654 122.661 156.18 123.245 155.586 123.428C154.598 123.734 153.625 122.898 152.937 121.406C152.517 120.497 152.738 119.099 153.512 118.658C153.875 118.453 154.68 118.412 154.885 118.645C155.776 119.664 157.156 120.396 157.156 122.276V122.28Z" fill="#83BF57"/>
<path id="Vector_76" d="M67.7998 69.3051C68.6271 68.5668 69.2681 67.9926 70.0986 67.248C70.6038 67.8223 71.2227 68.2482 71.4374 68.8255C71.7848 69.7563 72.0153 70.7911 71.99 71.7755C71.9805 72.2077 71.2795 72.8324 70.7806 72.9712C70.4049 73.0753 69.6849 72.662 69.4134 72.274C68.8039 71.4032 68.3777 70.403 67.7998 69.3083V69.3051Z" fill="#379473"/>
<path id="Vector_77" d="M84.9684 139.728C85.761 141.249 85.8115 142.64 84.2232 143.789C83.3517 143.596 82.4423 143.394 81.5045 143.189C81.2487 140.123 82.1771 139.173 84.9684 139.728Z" fill="#379473"/>
</g>
</g>
<g id="Group_5">
<g id="Vector_78" style="mix-blend-mode:multiply" opacity="0.5">
<path d="M13.2958 204.969C9.16873 205.146 4.63435 205.155 1.44196 202.536C0.466246 201.738 -0.373689 200.413 0.172584 199.277C0.627286 198.334 1.80193 198.025 2.83133 197.829C12.4653 195.996 22.194 194.681 31.967 193.882C40.881 193.154 49.9561 193.602 58.7691 192.081C62.271 191.475 74.2542 190.734 73.9227 197.009C73.6606 201.972 51.8255 202.082 47.8184 202.486C36.3372 203.644 24.8244 204.47 13.2958 204.969Z" fill="#828A85"/>
</g>
<g id="Group_6">
<g id="Group_7">
<path id="Vector_79" d="M17.2747 190.328C28.8254 189.435 61.1819 186.605 66.2088 186.207C66.6478 186.173 67.4845 186.352 68.3024 186.816C69.9191 187.728 71.8042 192.221 69.5812 194.549C66.3067 197.982 31.3263 198.531 31.3263 198.531L7.62493 200.563L6.70605 191.375C6.70605 191.375 14.4897 190.542 17.2747 190.328Z" fill="#70593A"/>
<g id="Group_8">
<path id="Vector_80" d="M5.12371 192.717C5.33843 192.228 5.70788 191.809 6.191 191.575C7.6972 190.846 9.47811 192.146 9.91071 195.169C10.8801 200.621 6.68359 202.614 4.9532 198.182C4.46376 196.841 4.40377 194.348 5.12371 192.717Z" fill="#F2D3AE"/>
<path id="Vector_81" d="M27.3602 197.521C24.2721 197.786 21.1776 197.982 18.0831 198.108C17.2021 198.143 16.3242 198.174 15.4433 198.197C15.3517 198.197 15.3422 198.055 15.4369 198.051C18.5346 197.966 21.6323 197.812 24.7204 197.588C25.5983 197.524 26.4761 197.452 27.3539 197.379C27.4455 197.37 27.455 197.515 27.3602 197.524V197.521Z" fill="#B08A63"/>
<path id="Vector_82" d="M22.7465 196.702C20.5835 196.74 18.4236 196.774 16.2606 196.812C16.1691 196.812 16.1596 196.67 16.2543 196.667C18.4173 196.629 20.5772 196.595 22.7401 196.557C22.8317 196.557 22.8412 196.699 22.7465 196.702Z" fill="#B08A63"/>
<path id="Vector_83" d="M18.1043 195.316C16.3834 195.294 14.6593 195.272 12.9384 195.247C12.8468 195.247 12.8373 195.102 12.9321 195.102C14.653 195.124 16.3771 195.146 18.098 195.171C18.1896 195.171 18.199 195.316 18.1043 195.316Z" fill="#B08A63"/>
<path id="Vector_84" d="M13.6172 197.114C12.831 197.152 12.0479 197.19 11.2616 197.228C11.1701 197.231 11.1606 197.089 11.2553 197.082C12.0416 197.045 12.8247 197.007 13.6109 196.969C13.7025 196.966 13.712 197.108 13.6172 197.114Z" fill="#B08A63"/>
<path id="Vector_85" d="M69.0471 190.038C66.9852 190.158 64.9232 190.328 62.8707 190.546C62.7792 190.555 62.7729 190.41 62.8644 190.401C64.9201 190.183 66.9789 190.013 69.0408 189.893C69.1324 189.886 69.1418 190.032 69.0471 190.038Z" fill="#B08A63"/>
<path id="Vector_86" d="M67.7775 191.306C66.6439 191.297 65.5103 191.369 64.3893 191.521C64.2977 191.533 64.2914 191.388 64.383 191.376C65.5071 191.224 66.6376 191.152 67.7711 191.161C67.8627 191.161 67.8722 191.306 67.7775 191.306Z" fill="#B08A63"/>
<path id="Vector_87" d="M68.011 193.05C67.1774 193.167 66.3469 193.287 65.5133 193.404C65.4218 193.416 65.4154 193.271 65.507 193.258L68.0047 192.905C68.0963 192.892 68.1026 193.038 68.011 193.05Z" fill="#B08A63"/>
<path id="Vector_88" d="M50.1011 194.918C47.9475 195.12 45.794 195.322 43.6373 195.521C43.5458 195.53 43.5395 195.385 43.631 195.376C45.7846 195.174 47.9381 194.972 50.0947 194.77C50.1863 194.761 50.1926 194.906 50.1011 194.915V194.918Z" fill="#B08A63"/>
<path id="Vector_89" d="M49.7254 196.3C47.7171 196.514 45.7089 196.732 43.7038 196.947C43.6122 196.956 43.6059 196.811 43.6974 196.802C45.7057 196.587 47.714 196.369 49.7191 196.155C49.8107 196.145 49.817 196.29 49.7254 196.3Z" fill="#B08A63"/>
</g>
</g>
<g id="Group_9">
<g id="Group_10">
<path id="Vector_90" d="M38.8695 162.815C42.4977 160.477 43.5302 159.505 41.0388 155.912C40.4547 155.072 39.5832 154.457 38.5822 154.252C35.8034 153.678 34.8562 156.748 32.6837 158.653C32.589 158.735 32.4848 158.808 32.3806 158.88C28.4177 161.625 33.0626 168.677 38.1022 163.452C38.3327 163.212 38.5885 162.995 38.8695 162.815Z" fill="#FFFAF0"/>
<path id="Vector_91" d="M40.4609 158.926C41.064 159.396 41.8944 159.437 42.6523 159.342C43.4101 159.248 44.1585 159.039 44.9226 159.077C45.851 159.125 46.7509 159.557 47.3667 160.251C47.6098 160.525 47.8119 160.838 48.1024 161.062C48.6329 161.472 49.3465 161.51 50.0001 161.652C50.9537 161.86 51.9863 162.548 51.9295 163.523C51.8821 164.356 51.0643 164.923 50.2812 165.214C48.9518 165.706 47.4709 165.782 46.0973 165.428C45.4815 165.27 44.8784 165.024 44.2437 165.009C43.8206 164.996 43.3943 165.087 42.9712 165.056C41.6103 164.955 40.6598 163.652 40.1577 162.384C39.782 161.437 39.5452 160.44 39.4473 159.427L40.4609 158.929V158.926Z" fill="#94633B"/>
<path id="Vector_92" d="M59.5934 178.465C59.5934 178.465 63.5784 186.945 59.9534 189.703C57.6167 191.479 44.9767 194.136 41.4432 191.34C38.2856 188.845 38.7687 180.976 38.7687 180.976L59.5934 178.465Z" fill="#F2DD6A"/>
<path id="Vector_93" d="M62.8619 171.888C64.7186 174.179 64.8481 177.703 63.2093 179.167C60.2948 181.77 55.8519 184.294 55.8519 184.294L45.918 162.909C45.918 162.909 50.7365 162.584 56.5593 166.37C58.6086 167.702 60.6989 169.222 62.8619 171.888Z" fill="#FF9980"/>
<path id="Vector_94" d="M35.2764 166.184L42.22 182.35L58.7156 179.094C58.7156 179.094 53.7328 168.143 49.5711 164.739C46.8997 162.556 46.1861 162.489 44.1904 162.818C43.2179 162.978 42.5926 163.184 42.5926 163.184C39.9118 163.859 38.1656 164.531 37.0573 165.067C35.6837 165.73 35.2795 166.187 35.2795 166.187L35.2764 166.184Z" fill="white"/>
<path id="Vector_95" d="M42.592 163.184C42.592 163.184 43.2172 162.979 44.1898 162.818C44.2435 162.812 44.7708 163.424 44.9476 163.74C45.9675 165.573 44.8655 167.381 42.8572 167.926C40.208 168.646 37.7324 166.847 37.0566 165.068C38.165 164.532 39.9143 163.856 42.592 163.184Z" fill="#FF9980"/>
<g id="Group_11">
<g id="Group_12">
<g id="Group_13">
<path id="Vector_96" d="M35.8792 157.994C37.0254 157.07 37.4675 156.073 39.0873 157.414C41.3861 159.313 42.8734 160.316 42.0871 162.556L43.7196 163.705C44.0385 164.774 39.8925 166.308 38.4148 165.894L37.7327 165.159C34.7298 164.938 31.7048 160.853 35.8823 157.991L35.8792 157.994Z" fill="#FF9980"/>
<path id="Vector_97" d="M33.0561 162.145C33.0561 162.145 33.0561 162.129 33.0561 162.123C33.0403 161.293 33.4918 160.375 34.2181 159.968C34.7833 159.649 35.4527 159.476 35.6011 159.653C37.3536 161.353 35.0233 165.982 33.4066 163.325C33.1887 162.968 33.0687 162.565 33.0592 162.148L33.0561 162.145Z" fill="#94633B"/>
<path id="Vector_98" d="M39.7373 157.949C38.9795 159.23 37.3533 160.145 35.9292 160.316C34.5019 160.634 32.8789 161.515 33.6083 159.054C34.1798 157.123 39.1721 154.949 39.7373 157.953V157.949Z" fill="#94633B"/>
</g>
<g id="Group_14">
<path id="Vector_99" d="M39.3046 160.552C39.3551 160.644 39.4688 160.678 39.5572 160.628C39.6456 160.577 39.6804 160.464 39.6298 160.372C39.5793 160.281 39.4656 160.246 39.3772 160.297C39.2888 160.347 39.2541 160.461 39.3046 160.552Z" fill="#1F1F1F"/>
<path id="Vector_100" d="M37.4609 162.164C37.5114 162.255 37.6251 162.29 37.7135 162.239C37.8019 162.189 37.8366 162.075 37.7861 161.984C37.7356 161.892 37.6219 161.858 37.5335 161.908C37.4451 161.958 37.4103 162.072 37.4609 162.164Z" fill="#1F1F1F"/>
<path id="Vector_101" d="M38.4998 161.423C38.6072 161.565 38.6956 161.559 38.7808 161.493C38.8661 161.426 38.9166 161.325 38.8093 161.183C38.7019 161.041 38.5472 160.981 38.4619 161.045C38.3767 161.111 38.3924 161.278 38.4998 161.42V161.423Z" fill="#FF7461"/>
</g>
</g>
<path id="Vector_102" d="M40.009 161.139C40.2206 161.436 40.6279 161.502 40.9153 161.291C41.2026 161.079 41.2658 160.666 41.0542 160.373C40.8427 160.076 40.4353 160.01 40.148 160.221C39.8606 160.432 39.7975 160.846 40.009 161.139Z" fill="#FF8466"/>
<path id="Vector_103" d="M37.0256 163.585C37.2372 163.881 37.6445 163.947 37.9319 163.736C38.2192 163.525 38.2824 163.111 38.0708 162.818C37.8593 162.521 37.4519 162.455 37.1646 162.666C36.8772 162.878 36.8141 163.291 37.0256 163.585Z" fill="#FF8466"/>
</g>
<g id="Group_15">
<g id="Group_16">
<path id="Vector_104" d="M38.0333 179.045C38.0333 179.045 41.4499 188.892 38.5101 191.444C35.8103 193.788 24.6322 194.492 20.9251 193.728C18.92 193.315 16.3055 192.488 15.314 191.166C12.5668 187.51 13.5236 180.361 13.5236 180.361L38.0301 179.045H38.0333Z" fill="#2B4F3F"/>
<path id="Vector_105" d="M35.7722 170.321L38.0109 176.268L30.6631 183.143L33.2966 186.677C33.2966 186.677 45.3083 182.973 46.3787 180.304C47.6607 177.111 38.6267 166.33 38.6267 166.33C38.6267 166.33 35.9964 166.718 35.3996 167.838C34.0512 170.359 35.7753 170.324 35.7753 170.324L35.7722 170.321Z" fill="#EB8C5E"/>
<path id="Vector_106" d="M37.2782 165.106C41.38 168.236 43.5903 172.523 43.5903 172.523C43.5903 172.523 36.0309 175.53 33.7764 177.158C24.7423 183.682 21.351 186.989 21.351 186.989C21.351 186.989 19.949 187.809 17.8965 183.84C17.1892 182.474 14.9283 182.632 14.3252 181.117C12.9232 177.606 12.238 173.984 12.759 171.113C13.8737 164.992 20.7353 162.976 24.0287 162.522C24.5876 162.446 32.3207 161.323 37.2814 165.109L37.2782 165.106Z" fill="#45969C"/>
<path id="Vector_107" d="M29.1658 162.273C29.1658 162.273 33.1192 168.653 32.5129 175.193L24.4451 175.111L24.0283 162.911L29.1658 162.273Z" fill="white"/>
<g id="Group_17">
<path id="Vector_108" d="M28.5829 154.006C30.0322 154.325 31.0774 153.997 31.1027 156.316C31.1374 159.606 31.2006 161.414 29.167 162.275L29.1891 162.853C29.1923 162.969 29.1702 163.086 29.1228 163.193C28.1755 165.26 24.56 164.648 24.0295 162.916L24.0011 160.922C22.2265 158.221 23.6948 152.485 28.5829 154.009V154.006Z" fill="#EB8C5E"/>
<g id="Group_18">
<path id="Vector_109" d="M28.8784 158.062C28.85 158.173 28.9068 158.289 29.0047 158.321C29.1026 158.352 29.2068 158.289 29.2352 158.179C29.2637 158.069 29.2068 157.952 29.1089 157.92C29.011 157.889 28.9068 157.952 28.8784 158.062Z" fill="#2E2E2E"/>
<path id="Vector_110" d="M26.479 158.033C26.4506 158.143 26.5074 158.26 26.6053 158.292C26.7032 158.323 26.8074 158.26 26.8358 158.15C26.8642 158.039 26.8074 157.922 26.7095 157.891C26.6116 157.859 26.5074 157.922 26.479 158.033Z" fill="#2E2E2E"/>
<path id="Vector_111" d="M27.6475 158.42C27.6475 158.584 27.7265 158.628 27.8338 158.625C27.9412 158.625 28.0423 158.575 28.0391 158.411C28.0391 158.247 27.9475 158.117 27.8402 158.117C27.7328 158.117 27.6444 158.253 27.6475 158.417V158.42Z" fill="#F26A41"/>
</g>
<path id="Vector_112" d="M25.1596 158.988C25.1186 159.363 25.3712 159.71 25.728 159.761C26.0848 159.811 26.4069 159.549 26.4511 159.174C26.4922 158.798 26.2396 158.451 25.8827 158.401C25.5259 158.35 25.2039 158.612 25.1596 158.988Z" fill="#F27B57"/>
<path id="Vector_113" d="M31.3391 157.654C31.3391 157.654 32.2485 157.884 31.9359 159.011C31.6517 160.036 30.575 160.292 30.2055 159.695C29.8076 159.058 30.7076 157.417 31.3391 157.654Z" fill="#EB8C5E"/>
<path id="Vector_114" d="M29.1225 158.991C29.0815 159.367 29.3341 159.714 29.6909 159.764C30.0477 159.815 30.3698 159.553 30.414 159.178C30.4551 158.802 30.2025 158.455 29.8456 158.405C29.4888 158.354 29.1667 158.616 29.1225 158.991Z" fill="#F27B57"/>
<path id="Vector_115" d="M25.0741 156.057C25.0993 156.154 24.9004 157.562 24.171 158.079L22.9995 158.227C22.9995 158.227 21.9511 155.145 23.3089 154.277C24.6667 153.413 25.0741 156.057 25.0741 156.057Z" fill="#505E50"/>
<path id="Vector_116" d="M23.0597 154.407C23.3691 154.212 23.4481 153.922 23.4797 153.581C23.5491 152.833 24.6038 152.514 25.2353 152.577C25.529 152.609 25.6774 152.738 25.9584 152.549C26.672 151.625 27.7425 151.839 28.6203 152.372C29.2771 152.306 30.0507 152.032 30.5686 152.653C30.8749 152.978 31.0296 153.379 31.3959 153.653C32.1127 153.915 32.8926 154.609 32.4537 155.474C32.2927 156.016 31.6706 155.979 31.4117 156.386C31.137 157.417 29.6623 157.086 29.1034 156.496C28.1182 155.048 27.2846 156.991 26.1226 156.417C25.93 156.382 25.7847 156.439 25.649 156.524C25.3111 156.729 24.9385 156.878 24.5501 156.938C24.1838 156.991 23.808 156.988 23.4512 156.878C22.4376 156.553 22.2766 155.06 23.0628 154.411L23.0597 154.407Z" fill="#404A40"/>
<path id="Vector_117" d="M23.363 157.395C22.8988 157.319 22.4567 157.758 22.6178 158.67C22.8009 159.72 23.824 160.105 24.2598 159.559C24.7239 158.973 24.3987 157.569 23.3661 157.395H23.363Z" fill="#EB8C5E"/>
</g>
<path id="Vector_118" d="M19.9172 177.22L19.7625 180.145L29.9554 183.736L30.9911 188.149C30.9911 188.149 17.1101 187.805 14.7197 186.335C11.4895 184.348 12.9041 172.93 12.9041 172.93C12.9041 172.93 16.1344 175.936 17.0975 175.968C19.8383 176.056 19.9204 177.22 19.9204 177.22H19.9172Z" fill="#EB8C5E"/>
</g>
<path id="Vector_119" d="M13.4316 169.178C14.7168 166.979 17.0882 172.797 17.0882 172.797L20.8521 177.921C20.8521 177.921 19.0522 177.839 17.3692 177.851C14.9189 177.87 12.1907 178.785 12.1907 178.785C12.1907 178.785 12.0801 171.484 13.4316 169.175V169.178Z" fill="#45969C"/>
</g>
<g id="Group_19">
<path id="Vector_120" d="M44.3613 178.164L40.6289 184.203L45.3401 188.462L48.5009 186.108L44.3613 178.164Z" fill="#F2DD6A"/>
<g id="Group_20">
<path id="Vector_121" d="M57.9106 175.23C59.9252 176.99 59.8588 179.155 60.4967 183.436L62.1102 193.974L62.4229 195.709C62.4229 195.709 62.4229 195.759 62.4355 195.775C62.9597 196.709 63.847 197.567 63.4017 197.794C62.4765 198.265 57.8064 196.826 57.5853 195.999C57.5064 195.706 57.0454 195.633 56.8243 194.778C56.7422 194.46 54.7845 188.635 54.3393 186.616C53.2878 181.849 52.3247 180.931 50.8438 176.129C51.8952 174.684 54.5193 172.264 57.9137 175.23H57.9106Z" fill="#FF9980"/>
<path id="Vector_122" d="M56.8215 194.777C57.0426 195.636 57.2383 196.393 57.3173 196.683C57.4404 197.14 58.9435 198.314 60.6454 199.068C60.7559 199.119 60.8696 199.166 60.9833 199.213C61.4285 199.393 61.8832 199.541 62.3253 199.633C62.4295 199.655 62.5306 199.674 62.6316 199.69C63.3263 199.8 63.9768 199.759 64.5009 199.494C64.8988 199.289 64.7693 198.828 64.4378 198.292C64.3746 198.191 64.3083 198.087 64.2325 197.983C64.0999 197.794 63.9483 197.604 63.7968 197.412C63.7336 197.333 63.6705 197.254 63.6041 197.178C63.2347 196.727 62.8716 196.311 62.6884 196.014C62.619 195.901 62.5432 195.667 62.48 195.446C62.4042 195.169 62.2621 195.058 61.9937 195.055L60.7465 195.323C60.3612 195.399 60.257 195.588 60.3455 195.904L60.456 196.298C58.3846 196.412 57.1468 195.206 56.8184 194.781L56.8215 194.777Z" fill="#FF9980"/>
</g>
<g id="Group_21">
<path id="Vector_123" d="M50.5978 176.078C52.805 177.593 52.8397 179.842 53.8059 184.064L56.2247 194.447L56.6668 196.15C56.6668 196.15 56.6731 196.201 56.6826 196.217C57.2762 197.106 58.2267 197.895 57.8004 198.157C56.9131 198.697 52.1482 197.621 51.864 196.813C51.7629 196.526 51.2956 196.491 51.0114 195.655C50.9041 195.346 47.6485 188.373 46.7675 186.503C44.3456 181.36 43.9572 178.946 44.554 177.605C45.1729 176.214 47.4307 173.905 50.5978 176.082V176.078Z" fill="#FF9980"/>
<path id="Vector_124" d="M51.011 195.651C51.2952 196.487 51.5509 197.229 51.652 197.513C51.9362 198.32 56.619 201.516 59.1261 199.841C59.4987 199.592 59.3693 199.175 59.0283 198.705C58.9556 198.604 58.8735 198.503 58.7851 198.399C58.6399 198.229 58.4757 198.059 58.3083 197.888C58.2357 197.816 58.1599 197.74 58.0873 197.667C57.6136 197.2 57.1337 196.765 56.9063 196.456C56.8274 196.349 56.3758 195.695 56.3758 195.695C56.2779 195.424 56.4548 195.512 56.1895 195.528L54.9675 195.891C54.5918 195.992 54.497 196.191 54.6107 196.5L54.7496 196.882C52.694 197.153 51.3678 196.046 51.0078 195.648L51.011 195.651Z" fill="#FF9980"/>
</g>
</g>
<g id="Group_22">
<path id="Vector_125" d="M62.3254 199.638C62.4296 199.66 62.5307 199.679 62.6317 199.695C62.6412 199.644 62.6507 199.597 62.6601 199.55C62.6886 199.405 62.717 199.263 62.7549 199.121C62.818 198.878 62.9001 198.641 63.0075 198.417C63.0296 198.367 63.0548 198.319 63.0801 198.269C63.1148 198.203 63.1527 198.136 63.1938 198.073C63.3548 197.821 63.5569 197.594 63.7969 197.417C63.7337 197.338 63.6706 197.259 63.6043 197.184C63.2727 197.433 63.0043 197.764 62.8054 198.133C62.8054 198.14 62.7991 198.143 62.7991 198.149C62.7391 198.263 62.6854 198.382 62.6349 198.502C62.5559 198.701 62.4928 198.903 62.4423 199.111C62.4012 199.275 62.3507 199.458 62.3223 199.638H62.3254Z" fill="#59443A"/>
<path id="Vector_126" d="M60.6448 199.074C60.7553 199.124 60.869 199.171 60.9826 199.219C61.4973 198.897 62.0531 198.657 62.6341 198.503C62.7572 198.468 62.8804 198.439 63.0035 198.417C63.474 198.32 63.954 198.279 64.4339 198.297C64.3708 198.197 64.3045 198.092 64.2287 197.988C63.8814 197.988 63.534 198.017 63.1898 198.073C63.0572 198.092 62.9246 198.121 62.7951 198.149C62.0278 198.32 61.2952 198.632 60.6416 199.074H60.6448Z" fill="#59443A"/>
<path id="Vector_127" d="M56.9917 195.441C56.616 195.561 56.6886 195.852 56.7675 196.063C57.2538 197.363 61.9398 200.893 64.5006 199.496C64.8038 199.328 64.8006 199.022 64.6238 198.641C64.5985 198.764 64.5259 198.865 64.387 198.934C62.1261 200.095 57.437 196.946 57.2033 196.123C57.1623 195.984 56.9917 195.441 56.9917 195.441Z" fill="#59443A"/>
<path id="Vector_128" d="M56.7832 200.063C56.8969 200.085 57.0074 200.104 57.1179 200.116C57.1274 200.066 57.14 200.018 57.1495 199.971C57.1811 199.826 57.2158 199.684 57.2537 199.542C57.3232 199.299 57.4147 199.062 57.5316 198.835C57.5568 198.785 57.5821 198.738 57.6105 198.687C57.6484 198.621 57.6894 198.555 57.7337 198.491C57.8947 198.264 58.0873 198.056 58.3115 197.889C58.2389 197.816 58.1631 197.741 58.0905 197.668C57.7715 197.908 57.5095 198.214 57.3137 198.555C57.3137 198.561 57.3074 198.564 57.3042 198.57C57.2379 198.684 57.1811 198.804 57.1274 198.924C57.039 199.122 56.9695 199.324 56.9158 199.533C56.8685 199.697 56.8148 199.88 56.7832 200.063Z" fill="#59443A"/>
<path id="Vector_129" d="M54.9614 199.508C55.0814 199.558 55.2045 199.606 55.3277 199.65C55.8866 199.325 56.496 199.082 57.1275 198.924C57.2602 198.889 57.3959 198.861 57.5286 198.836C58.0212 198.741 58.5264 198.694 59.0285 198.706C58.9558 198.605 58.8737 198.505 58.7853 198.4C58.4348 198.407 58.0812 198.435 57.7307 198.492C57.5886 198.514 57.4433 198.539 57.3012 198.571C56.4676 198.747 55.6687 199.063 54.9551 199.508H54.9614Z" fill="#59443A"/>
<path id="Vector_130" d="M50.8692 197.116C51.3712 197.813 56.0351 201.517 59.1801 200.025C59.5148 199.864 59.4737 199.435 59.2843 199.053C59.2559 199.176 59.1738 199.277 59.0254 199.346C56.5624 200.52 51.668 197.703 51.4344 196.876C51.4154 196.813 51.1975 196.201 51.1975 196.201C50.506 196.141 50.6734 196.844 50.866 197.113L50.8692 197.116Z" fill="#59443A"/>
</g>
</g>
<g id="Group_23">
<g id="Group_24">
<path id="Vector_131" d="M37.6505 174.312C39.8356 176.502 39.6777 178.985 40.2271 183.96L41.6291 196.211L41.9101 198.23C41.9101 198.23 41.9102 198.29 41.9228 198.309C42.4754 199.426 43.4321 200.486 42.9269 200.71C41.8723 201.174 36.7032 199.139 36.4885 198.17C36.4127 197.826 35.898 197.707 35.6833 196.703C35.6043 196.331 33.5803 189.605 33.1571 187.245C32.1656 181.679 31.1836 180.414 29.709 174.767C30.9405 173.192 33.9718 170.621 37.6505 174.309V174.312Z" fill="#EB8C5E"/>
<path id="Vector_132" d="M39.6936 198.744L39.5862 198.284C39.501 197.911 39.6241 197.703 40.0599 197.65L41.465 197.441C41.7618 197.47 41.9166 197.609 41.9924 197.934C42.0524 198.192 42.1281 198.47 42.2008 198.606C42.7944 199.688 45.2132 202.256 44.0953 202.754C41.5187 203.903 36.3812 199.905 36.1665 198.937C36.0907 198.593 35.9012 197.706 35.6865 196.703C36.0402 197.221 37.3759 198.707 39.6967 198.744H39.6936Z" fill="white"/>
</g>
<g id="Group_25">
<path id="Vector_133" d="M29.6712 174.359C32.1121 176.239 31.8026 179.199 32.7183 184.133L35.0234 196.271L35.4529 198.268C35.4529 198.268 35.4592 198.328 35.4686 198.343C36.1002 199.416 37.1327 200.4 36.6433 200.665C35.6297 201.214 30.3406 199.586 30.0533 198.634C29.9522 198.296 29.4312 198.217 29.1439 197.23C29.0365 196.864 25.661 188.582 24.7484 186.358C22.2381 180.246 21.8971 177.438 22.6138 175.946C23.359 174.397 26.2199 171.703 29.668 174.356L29.6712 174.359Z" fill="#EB8C5E"/>
<path id="Vector_134" d="M33.2898 198.955L33.1478 198.504C33.0341 198.138 33.1446 197.921 33.5709 197.832L34.9508 197.514C35.2476 197.517 35.4118 197.643 35.5128 197.962C35.5918 198.214 35.6865 198.489 35.7718 198.618C36.4412 199.653 39.2104 202.028 38.0705 202.71C35.1971 204.429 30.0817 200.372 29.7975 199.422C29.6964 199.085 29.4407 198.214 29.1533 197.227C29.5417 197.716 30.9816 199.097 33.293 198.952L33.2898 198.955Z" fill="white"/>
</g>
<path id="Vector_135" d="M25.2192 173.627C25.2192 173.627 21.4079 174.674 18.4902 180.375L20.9279 182.808L27.6664 184.225L27.0885 177.937L25.2192 173.627Z" fill="#EB8C5E"/>
</g>
</g>
<path id="Vector_136" d="M7.39113 199.728C6.5133 199.728 5.67652 199.003 5.16814 197.763C4.75765 196.69 4.70081 194.709 5.32287 193.371C5.51864 192.951 5.84704 192.62 6.2449 192.434C6.75644 192.197 7.31534 192.216 7.82373 192.491C8.64472 192.932 9.22888 193.967 9.43097 195.327C9.89515 197.848 8.93838 199.34 7.84899 199.659C7.69742 199.703 7.54269 199.725 7.39113 199.725V199.728ZM5.42391 193.418C4.83343 194.687 4.86816 196.668 5.27234 197.722C5.84388 199.119 6.8417 199.839 7.82057 199.555C8.89417 199.239 9.75621 197.693 9.32361 195.346C9.12784 194.018 8.56262 193.014 7.7732 192.588C7.29956 192.333 6.77539 192.314 6.29542 192.535C5.91966 192.708 5.61021 193.021 5.42707 193.418H5.42391Z" fill="#C48B66"/>
<path id="Vector_137" d="M7.35017 198.975C6.64917 198.975 5.97659 198.398 5.57241 197.404C5.24402 196.549 5.19981 194.968 5.69556 193.902C5.85344 193.567 6.11553 193.299 6.43445 193.151C6.84495 192.962 7.29333 192.977 7.70067 193.195C8.3543 193.548 8.82479 194.375 8.98583 195.46C9.35844 197.473 8.59113 198.663 7.71962 198.918C7.59647 198.953 7.47332 198.972 7.35017 198.972V198.975ZM5.79661 193.949C5.32612 194.956 5.35453 196.527 5.67661 197.363C6.12816 198.47 6.92073 199.041 7.68804 198.814C8.53745 198.565 9.2195 197.341 8.87532 195.479C8.72059 194.426 8.2722 193.63 7.64699 193.293C7.27439 193.091 6.85758 193.075 6.48182 193.252C6.185 193.388 5.94186 193.637 5.79661 193.949Z" fill="#C48B66"/>
<path id="Vector_138" d="M7.31844 198.306C6.889 198.306 6.38062 197.991 6.03959 197.082C5.80593 196.419 5.76804 195.198 6.11538 194.375C6.2259 194.113 6.4122 193.905 6.64271 193.791C6.92058 193.652 7.22371 193.656 7.50159 193.801C7.99418 194.059 8.34784 194.713 8.47099 195.586C8.73307 197.113 8.20574 198.095 7.54579 198.271C7.47317 198.29 7.40054 198.3 7.3216 198.3L7.31844 198.306ZM6.21642 194.419C5.89118 195.192 5.91329 196.4 6.1438 197.044C6.45956 197.883 6.98689 198.312 7.51422 198.17C8.1268 198.003 8.61308 197.069 8.36047 195.609C8.24363 194.766 7.90892 194.145 7.44791 193.902C7.19845 193.772 6.93637 193.769 6.69007 193.892C6.48482 193.996 6.31747 194.182 6.21642 194.419Z" fill="#C48B66"/>
<path id="Vector_139" d="M7.21083 197.703C6.91717 197.703 6.56351 197.47 6.32984 196.795C6.17196 196.309 6.14038 195.413 6.37405 194.81C6.44983 194.615 6.57614 194.463 6.73087 194.378C6.91401 194.28 7.10663 194.277 7.29293 194.372C7.64658 194.552 7.8992 195.037 7.98761 195.706C8.17391 196.852 7.80447 197.568 7.34345 197.685C7.3024 197.694 7.25819 197.7 7.21083 197.7V197.703ZM6.4751 194.851C6.26038 195.413 6.27932 196.29 6.43405 196.76C6.63929 197.35 6.97716 197.666 7.31503 197.58C7.71605 197.479 8.05076 196.795 7.87709 195.725C7.79499 195.101 7.55817 194.634 7.24241 194.473C7.09084 194.397 6.93296 194.397 6.78139 194.479C6.64877 194.552 6.53825 194.684 6.47194 194.854L6.4751 194.851Z" fill="#C48B66"/>
<path id="Vector_140" d="M7.16064 196.857C7.00591 196.857 6.82593 196.737 6.70594 196.396C6.627 196.153 6.61121 195.712 6.72804 195.412C6.76593 195.311 6.83224 195.232 6.91434 195.188C7.00907 195.137 7.11643 195.134 7.21432 195.185C7.39431 195.276 7.52377 195.522 7.56798 195.857C7.65955 196.428 7.47009 196.791 7.23327 196.851C7.21116 196.857 7.1859 196.86 7.16064 196.86V196.857ZM6.82909 195.453C6.72488 195.721 6.73751 196.138 6.81014 196.362C6.90487 196.633 7.05644 196.781 7.20485 196.74C7.38799 196.693 7.53956 196.374 7.45746 195.869C7.41957 195.573 7.30905 195.355 7.1638 195.279C7.09749 195.245 7.03118 195.248 6.96802 195.279C6.90803 195.311 6.86066 195.371 6.83224 195.447L6.82909 195.453Z" fill="#C48B66"/>
</g>
<path id="Vector_141" d="M39.5739 161.835C39.5266 162.087 39.3592 162.358 39.0845 162.409C38.9392 162.437 38.7908 162.396 38.6551 162.346C38.5856 162.317 38.5572 162.428 38.6235 162.456C38.8635 162.551 39.1413 162.573 39.3561 162.412C39.4982 162.305 39.5929 162.147 39.6497 161.98C39.6624 161.942 39.675 161.904 39.6813 161.866C39.6939 161.794 39.5834 161.765 39.5708 161.835H39.5739Z" fill="#404040"/>
<path id="Vector_142" d="M33.8145 161.424C33.8587 162.051 34.1302 162.651 34.5849 163.089C34.6386 163.14 34.7175 163.061 34.667 163.007C34.2376 162.591 33.9723 162.02 33.9313 161.424C33.925 161.351 33.8113 161.351 33.8176 161.424H33.8145Z" fill="#404040"/>
<path id="Vector_143" d="M38.6197 158.912C37.925 159.603 36.9808 160.001 35.9988 160.013C35.9262 160.013 35.9262 160.127 35.9988 160.127C37.0093 160.114 37.985 159.704 38.6986 158.994C38.7523 158.944 38.6702 158.862 38.6165 158.912H38.6197Z" fill="#404040"/>
<path id="Vector_144" d="M35.5608 160.952C35.8702 161.579 35.7502 162.387 35.2545 162.882C35.204 162.936 35.2829 163.015 35.3366 162.964C35.8702 162.428 35.9965 161.567 35.6618 160.895C35.6302 160.829 35.5292 160.885 35.5639 160.952H35.5608Z" fill="#404040"/>
<path id="Vector_145" d="M28.386 158.994C28.3797 159.001 28.3734 159.01 28.3671 159.016C28.345 159.042 28.3229 159.067 28.2976 159.089C28.2313 159.155 28.1555 159.212 28.0702 159.253C27.9724 159.3 27.8587 159.322 27.7513 159.297C27.584 159.259 27.4513 159.133 27.3503 158.997C27.3061 158.941 27.2082 158.997 27.2524 159.054C27.4135 159.266 27.6376 159.452 27.9187 159.414C28.1018 159.389 28.266 159.281 28.3955 159.152C28.4271 159.12 28.4586 159.086 28.4839 159.051C28.5281 158.991 28.4302 158.934 28.386 158.994Z" fill="#404040"/>
<path id="Vector_146" d="M28.5193 162.323C28.3077 162.389 28.0804 162.414 27.8625 162.427C27.3446 162.458 26.8205 162.376 26.3437 162.171C26.2773 162.143 26.2173 162.241 26.2868 162.269C26.7763 162.48 27.3036 162.569 27.8341 162.543C28.074 162.531 28.3203 162.502 28.5509 162.433C28.6203 162.411 28.5919 162.3 28.5193 162.323Z" fill="#404040"/>
<path id="Vector_147" d="M31.8879 155.05C31.8374 155.271 31.49 155.375 31.2942 155.422C31.0669 155.476 30.8301 155.485 30.5964 155.482C30.1133 155.476 29.6175 155.438 29.2039 155.167C29.1439 155.126 29.0839 155.224 29.147 155.265C29.6112 155.571 30.1922 155.605 30.7322 155.596C30.9879 155.593 31.2532 155.567 31.4963 155.479C31.6889 155.41 31.951 155.296 31.9984 155.075C32.0142 155.003 31.9037 154.974 31.8879 155.044V155.05Z" fill="#404040"/>
<path id="Vector_148" d="M27.9911 152.909C27.6406 152.959 27.3249 153.174 27.1354 153.474C26.9302 153.802 26.8828 154.215 26.9838 154.584C27.0028 154.653 27.1133 154.625 27.0944 154.553C26.9996 154.212 27.0438 153.833 27.2333 153.53C27.407 153.253 27.6975 153.067 28.0196 153.019C28.0922 153.01 28.0606 152.899 27.988 152.909H27.9911Z" fill="#404040"/>
<path id="Vector_149" d="M24.6565 156.912C24.145 157.041 23.605 156.934 23.1693 156.641C23.1093 156.6 23.0524 156.697 23.1124 156.739C23.5703 157.051 24.1481 157.158 24.6881 157.022C24.7607 157.004 24.7292 156.893 24.6565 156.912Z" fill="#404040"/>
<path id="Vector_150" d="M29.513 153.051C28.5942 152.886 27.71 153.388 27.3216 154.224C27.29 154.29 27.3879 154.347 27.4195 154.281C27.7858 153.492 28.6099 153.003 29.4815 153.158C29.5541 153.17 29.5857 153.06 29.513 153.047V153.051Z" fill="#404040"/>
<path id="Vector_151" d="M52.3498 178.524C53.1361 181.603 53.875 184.698 54.617 187.79C54.6328 187.863 54.7433 187.831 54.7275 187.759C53.9855 184.667 53.2466 181.575 52.4604 178.492C52.4414 178.42 52.3309 178.451 52.3498 178.524Z" fill="#404040"/>
<path id="Vector_152" d="M58.3779 175.773C59.0252 176.61 59.341 177.742 59.6252 178.742C59.9536 179.9 60.2125 181.093 60.3357 182.292C60.342 182.364 60.4588 182.364 60.4493 182.292C60.3199 181.052 60.0546 179.818 59.7104 178.619C59.4263 177.625 59.101 176.521 58.46 175.691C58.4158 175.635 58.3337 175.714 58.3779 175.773Z" fill="#404040"/>
<path id="Vector_153" d="M59.8332 173.319C59.3437 173.855 58.8543 174.392 58.3649 174.928C58.2954 175.004 58.2259 175.079 58.1565 175.158C58.1059 175.212 58.188 175.294 58.2386 175.24C58.728 174.704 59.2174 174.168 59.7069 173.631C59.7763 173.556 59.8458 173.48 59.9153 173.404C59.9658 173.351 59.8837 173.269 59.8332 173.322V173.319Z" fill="#404040"/>
<path id="Vector_154" d="M42.0467 202.17C40.9447 201.899 39.8963 201.483 38.9333 200.88C38.0207 200.309 37.2029 199.605 36.3945 198.895C36.3408 198.848 36.2587 198.927 36.3124 198.977C37.1271 199.69 37.9544 200.4 38.8764 200.978C39.8458 201.587 40.9068 202.009 42.0183 202.281C42.0909 202.3 42.1193 202.189 42.0499 202.17H42.0467Z" fill="#404040"/>
<path id="Vector_155" d="M35.936 202.622C34.8024 202.433 33.7414 202.017 32.772 201.401C31.9163 200.856 31.1522 200.184 30.3754 199.534C30.3185 199.486 30.2396 199.568 30.2933 199.616C31.0795 200.269 31.85 200.947 32.712 201.499C33.6877 202.121 34.7582 202.544 35.9013 202.733C35.9739 202.746 36.0055 202.635 35.9328 202.622H35.936Z" fill="#404040"/>
<path id="Vector_156" d="M31.373 177.95C32.0488 181.152 32.6803 184.367 33.315 187.579C33.375 187.882 33.435 188.184 33.495 188.487C33.5076 188.56 33.6181 188.528 33.6055 188.456C33.094 185.853 32.5793 183.253 32.0519 180.653C31.8656 179.742 31.6793 178.83 31.4867 177.918C31.4709 177.846 31.3604 177.877 31.3762 177.95H31.373Z" fill="#404040"/>
<path id="Vector_157" d="M38.3673 175.249C39.0241 176.214 39.2988 177.461 39.5388 178.584C39.823 179.915 40.0124 181.275 40.1008 182.635C40.1071 182.707 40.2208 182.707 40.2145 182.635C40.1229 181.266 39.9335 179.896 39.6461 178.555C39.403 177.423 39.1283 176.167 38.4652 175.195C38.4241 175.135 38.3262 175.192 38.3673 175.252V175.249Z" fill="#404040"/>
<path id="Vector_158" d="M22.551 179.515C23.2299 182.08 24.0414 184.61 24.9824 187.093C25.0077 187.162 25.1182 187.131 25.0929 187.061C24.1519 184.578 23.3404 182.048 22.6615 179.483C22.6426 179.414 22.5321 179.442 22.551 179.515Z" fill="#404040"/>
<path id="Vector_159" d="M23.4316 182.165C21.7328 181.563 20.0561 180.906 18.3983 180.197C18.332 180.168 18.272 180.266 18.3415 180.294C20.0056 181.007 21.6949 181.667 23.4001 182.272C23.4695 182.298 23.498 182.187 23.4316 182.162V182.165Z" fill="#404040"/>
<path id="Vector_160" d="M19.7565 178.145C19.2702 178.82 18.8628 179.545 18.5408 180.312C18.5123 180.378 18.6229 180.41 18.6513 180.344C18.9702 179.586 19.3744 178.867 19.8543 178.201C19.8986 178.141 19.7975 178.085 19.7565 178.145Z" fill="#404040"/>
<path id="Vector_161" d="M20.1357 169.324C20.1547 171.782 20.1736 174.236 20.1926 176.694C20.1926 176.767 20.3063 176.767 20.3063 176.694C20.2873 174.236 20.2684 171.782 20.2494 169.324C20.2494 169.251 20.1357 169.251 20.1357 169.324Z" fill="#404040"/>
<path id="Vector_162" d="M36.4445 166.73C36.3782 168.699 36.2898 170.664 36.1856 172.63C36.1825 172.703 36.2961 172.703 36.2993 172.63C36.4035 170.664 36.4919 168.699 36.5582 166.73C36.5582 166.658 36.4477 166.658 36.4445 166.73Z" fill="#404040"/>
</g>
<g id="Group_26">
<g id="Group_27">
<g id="Vector_163" style="mix-blend-mode:multiply" opacity="0.5">
<path d="M157.581 199.598C157.812 199.462 158.042 199.324 158.273 199.188C159.094 198.702 159.918 198.216 160.786 197.822C164.787 196.017 169.786 196.26 174.03 196.771C175.87 196.992 177.869 197.248 178.491 199.245C178.984 200.825 178.299 202.693 177.171 203.835C175.621 205.403 173.417 206.085 171.355 206.867C168.949 207.782 166.625 208.905 164.411 210.221C163.439 210.798 162.469 211.426 161.367 211.679C159.744 212.054 158.058 211.581 156.391 211.552C153.164 211.499 149.861 213.108 146.811 212.054C146.691 212.013 146.564 211.963 146.485 211.862C146.324 211.663 146.413 211.369 146.511 211.133C147.196 209.306 147.834 206.949 149.027 205.432C150.357 203.741 152.494 202.605 154.313 201.532C155.406 200.885 156.495 200.242 157.588 199.595L157.581 199.598Z" fill="#828A85"/>
</g>
<g id="Group_28">
<g id="Group_29">
<path id="Vector_164" d="M154.156 186.283L154.077 199.786L152.583 202.37L153.669 203.058L162.318 201.335L167.247 204.572L170.174 204.083L170.509 201.051L178.593 201.096L175.441 197.884V185.958L164.431 185.535L154.156 186.283Z" fill="#70593A"/>
<path id="Vector_165" d="M164.797 191C170.674 191 175.438 188.888 175.438 186.283C175.438 183.678 170.674 181.566 164.797 181.566C158.92 181.566 154.155 183.678 154.155 186.283C154.155 188.888 158.92 191 164.797 191Z" fill="#F2C8AE"/>
<g id="Group_30">
<path id="Vector_166" d="M164.797 190.148C162.141 190.148 159.659 189.697 157.812 188.88C156.183 188.158 155.248 187.214 155.248 186.287C155.248 185.359 156.183 184.416 157.812 183.693C159.659 182.873 162.141 182.422 164.797 182.422C167.452 182.422 169.934 182.873 171.782 183.693C173.411 184.416 174.346 185.362 174.346 186.287C174.346 187.211 173.411 188.158 171.782 188.88C169.934 189.7 167.452 190.148 164.797 190.148ZM164.797 182.523C162.154 182.523 159.688 182.971 157.853 183.785C156.262 184.488 155.349 185.4 155.349 186.287C155.349 187.173 156.262 188.082 157.853 188.789C159.688 189.603 162.154 190.051 164.797 190.051C167.44 190.051 169.906 189.603 171.74 188.789C173.332 188.085 174.241 187.173 174.241 186.287C174.241 185.4 173.329 184.492 171.74 183.785C169.906 182.971 167.44 182.523 164.797 182.523Z" fill="#B0876D"/>
<path id="Vector_167" d="M164.797 189.482C162.334 189.482 160.051 189.037 158.374 188.233C157.155 187.649 156.397 186.902 156.397 186.283C156.397 185.665 157.155 184.917 158.374 184.333C160.054 183.529 162.334 183.084 164.797 183.084C167.26 183.084 169.543 183.529 171.219 184.333C172.438 184.917 173.196 185.665 173.196 186.283C173.196 186.902 172.438 187.649 171.219 188.233C169.54 189.037 167.26 189.482 164.797 189.482ZM164.797 183.185C162.35 183.185 160.082 183.623 158.415 184.425C157.231 184.993 156.495 185.706 156.495 186.283C156.495 186.861 157.231 187.574 158.415 188.141C160.082 188.94 162.346 189.381 164.797 189.381C167.247 189.381 169.511 188.943 171.178 188.141C172.363 187.574 173.098 186.861 173.098 186.283C173.098 185.706 172.363 184.993 171.178 184.425C169.511 183.627 167.247 183.185 164.797 183.185Z" fill="#B0876D"/>
<path id="Vector_168" d="M164.797 188.856C162.713 188.856 160.781 188.499 159.36 187.855C158.324 187.385 157.68 186.783 157.68 186.284C157.68 185.786 158.324 185.183 159.36 184.713C160.781 184.066 162.713 183.713 164.797 183.713C166.881 183.713 168.814 184.069 170.235 184.713C171.27 185.183 171.914 185.786 171.914 186.284C171.914 186.783 171.27 187.385 170.235 187.855C168.814 188.499 166.881 188.856 164.797 188.856ZM164.797 183.814C162.726 183.814 160.809 184.167 159.401 184.805C158.403 185.259 157.781 185.824 157.781 186.284C157.781 186.745 158.4 187.31 159.401 187.764C160.809 188.404 162.726 188.755 164.797 188.755C166.868 188.755 168.785 188.401 170.193 187.764C171.191 187.31 171.813 186.745 171.813 186.284C171.813 185.824 171.194 185.259 170.193 184.805C168.785 184.164 166.868 183.814 164.797 183.814Z" fill="#B0876D"/>
<path id="Vector_169" d="M164.797 188.145C163.247 188.145 161.813 187.889 160.756 187.425C159.969 187.082 159.502 186.652 159.502 186.283C159.502 185.914 159.969 185.485 160.756 185.141C161.813 184.677 163.247 184.422 164.797 184.422C166.348 184.422 167.781 184.677 168.839 185.141C169.625 185.485 170.093 185.914 170.093 186.283C170.093 186.652 169.625 187.082 168.839 187.425C167.781 187.889 166.348 188.145 164.797 188.145ZM164.797 184.52C163.263 184.52 161.842 184.772 160.797 185.233C160.07 185.551 159.603 185.965 159.603 186.283C159.603 186.602 160.07 187.015 160.797 187.334C161.842 187.791 163.263 188.047 164.797 188.047C166.332 188.047 167.753 187.795 168.798 187.334C169.521 187.015 169.992 186.605 169.992 186.283C169.992 185.961 169.524 185.551 168.798 185.233C167.753 184.775 166.332 184.52 164.797 184.52Z" fill="#B0876D"/>
<path id="Vector_170" d="M164.921 187.4C163.803 187.4 162.77 187.233 162.009 186.926C161.438 186.696 161.097 186.412 161.097 186.16C161.097 185.907 161.438 185.623 162.009 185.393C162.77 185.087 163.806 184.92 164.921 184.92C166.035 184.92 167.071 185.087 167.832 185.393C168.403 185.623 168.745 185.907 168.745 186.16C168.745 186.412 168.403 186.696 167.832 186.926C167.071 187.233 166.035 187.4 164.921 187.4ZM164.921 185.021C163.815 185.021 162.795 185.185 162.047 185.488C161.532 185.696 161.198 185.958 161.198 186.16C161.198 186.362 161.529 186.627 162.047 186.832C162.799 187.132 163.819 187.299 164.921 187.299C166.023 187.299 167.046 187.135 167.794 186.832C168.309 186.624 168.643 186.362 168.643 186.16C168.643 185.958 168.312 185.693 167.794 185.488C167.043 185.188 166.023 185.021 164.921 185.021Z" fill="#B0876D"/>
<path id="Vector_171" d="M164.92 186.896C164.257 186.896 163.641 186.798 163.186 186.618C162.839 186.479 162.634 186.306 162.634 186.148C162.634 185.99 162.842 185.817 163.186 185.678C163.641 185.498 164.257 185.4 164.92 185.4C165.583 185.4 166.199 185.498 166.653 185.678C167.001 185.817 167.206 185.99 167.206 186.148C167.206 186.306 166.998 186.479 166.653 186.618C166.199 186.798 165.583 186.896 164.92 186.896ZM164.92 185.501C164.269 185.501 163.666 185.599 163.224 185.773C162.886 185.908 162.735 186.057 162.735 186.148C162.735 186.24 162.886 186.388 163.224 186.524C163.666 186.7 164.269 186.795 164.92 186.795C165.57 186.795 166.174 186.697 166.616 186.524C166.953 186.391 167.105 186.24 167.105 186.148C167.105 186.057 166.953 185.908 166.616 185.773C166.174 185.596 165.57 185.501 164.92 185.501Z" fill="#B0876D"/>
</g>
<g id="Group_31">
<path id="Vector_172" d="M170.377 194.079C170.333 194.079 170.295 194.044 170.295 193.997V192.129C170.295 192.085 170.333 192.047 170.377 192.047C170.421 192.047 170.459 192.082 170.459 192.129V193.997C170.459 194.041 170.421 194.079 170.377 194.079Z" fill="#B58660"/>
<path id="Vector_173" d="M171.239 195.361C171.201 195.361 171.166 195.332 171.16 195.291C171.056 194.629 171.03 193.957 171.084 193.294C171.087 193.25 171.128 193.215 171.172 193.221C171.217 193.225 171.251 193.262 171.245 193.31C171.191 193.96 171.217 194.619 171.318 195.269C171.324 195.313 171.296 195.354 171.251 195.361C171.248 195.361 171.242 195.361 171.239 195.361Z" fill="#B58660"/>
<path id="Vector_174" d="M170.326 197.445C170.282 197.445 170.244 197.41 170.244 197.363V195.057C170.244 195.012 170.282 194.975 170.326 194.975C170.37 194.975 170.408 195.009 170.408 195.057V197.363C170.408 197.407 170.37 197.445 170.326 197.445Z" fill="#B58660"/>
<path id="Vector_175" d="M169.183 200.269C169.183 200.269 169.177 200.269 169.174 200.269C169.13 200.262 169.098 200.225 169.104 200.18C169.259 198.836 169.297 197.473 169.221 196.126C169.221 196.082 169.253 196.044 169.297 196.041C169.344 196.041 169.379 196.073 169.382 196.117C169.458 197.47 169.417 198.846 169.265 200.196C169.262 200.237 169.227 200.269 169.186 200.269H169.183Z" fill="#B58660"/>
<path id="Vector_176" d="M172.24 195.105H172.237C172.193 195.105 172.158 195.067 172.161 195.02L172.275 192.275C172.275 192.231 172.316 192.199 172.36 192.199C172.404 192.199 172.439 192.237 172.436 192.284L172.322 195.029C172.322 195.073 172.284 195.105 172.243 195.105H172.24Z" fill="#B58660"/>
<path id="Vector_177" d="M171.412 198.105C171.368 198.105 171.33 198.07 171.33 198.023V196.01C171.33 195.966 171.368 195.928 171.412 195.928C171.456 195.928 171.494 195.962 171.494 196.01V198.023C171.494 198.067 171.456 198.105 171.412 198.105Z" fill="#B58660"/>
<path id="Vector_178" d="M173.317 196.091C173.272 196.091 173.238 196.057 173.238 196.013C173.203 195.025 173.209 194.025 173.26 193.041C173.26 192.996 173.304 192.968 173.345 192.965C173.389 192.965 173.424 193.006 173.421 193.05C173.37 194.031 173.364 195.025 173.399 196.009C173.399 196.054 173.367 196.091 173.32 196.091H173.317Z" fill="#B58660"/>
<path id="Vector_179" d="M168.873 194.811C168.829 194.811 168.794 194.776 168.791 194.732C168.772 193.874 168.807 193.009 168.892 192.16C168.895 192.116 168.94 192.088 168.981 192.088C169.025 192.091 169.056 192.132 169.053 192.176C168.968 193.019 168.933 193.88 168.952 194.729C168.952 194.773 168.917 194.811 168.873 194.811Z" fill="#B58660"/>
<path id="Vector_180" d="M173.31 192.249C173.266 192.249 173.231 192.215 173.231 192.171C173.209 191.499 173.219 190.817 173.263 190.148C173.263 190.104 173.307 190.069 173.348 190.072C173.392 190.072 173.427 190.113 173.424 190.158C173.38 190.82 173.37 191.495 173.392 192.164C173.392 192.208 173.357 192.246 173.313 192.246L173.31 192.249Z" fill="#B58660"/>
<path id="Vector_181" d="M167.686 196.386C167.642 196.386 167.607 196.348 167.607 196.303L167.658 194.802C167.658 194.758 167.696 194.72 167.74 194.723C167.784 194.723 167.819 194.761 167.819 194.805V194.83L167.768 196.307C167.768 196.351 167.731 196.386 167.69 196.386H167.686Z" fill="#B58660"/>
<path id="Vector_182" d="M173.967 198.576C173.948 198.576 173.926 198.57 173.914 198.554C173.481 198.15 173.131 197.705 172.869 197.232C172.846 197.194 172.862 197.144 172.9 197.121C172.938 197.099 172.988 197.115 173.011 197.153C173.263 197.61 173.604 198.043 174.024 198.437C174.056 198.469 174.059 198.519 174.027 198.551C174.012 198.566 173.989 198.576 173.967 198.576Z" fill="#B58660"/>
</g>
</g>
<path id="Vector_183" d="M155.696 158.877C154.417 160.019 151.193 163.146 149.551 165.711C149.327 165.339 149.094 164.973 148.866 164.601C148.304 163.689 147.748 162.755 147.139 161.871C146.59 161.073 146.659 160.348 146.94 159.417C147.148 158.723 147.407 158.016 147.335 157.297C147.319 157.126 147.25 156.924 147.082 156.887C147 156.868 146.912 156.899 146.836 156.934C146.113 157.265 145.724 158.048 145.156 158.606C144.761 158.994 143.252 159.641 143.252 160.218C143.252 160.426 143.467 160.628 143.473 160.874C143.479 161.127 143.41 161.389 143.426 161.651C143.568 164.203 144.373 168.399 145.188 170.841C145.753 172.532 146.972 175.176 149.214 174.384C156.871 171.687 163.906 160.064 163.275 160.048L155.699 158.874L155.696 158.877Z" fill="#FF9980"/>
<g id="Group_32">
<path id="Vector_184" d="M151.791 205.087C151.791 205.087 151.791 205.093 151.791 205.103C151.768 205.245 151.595 206.459 151.408 207.746C151.358 208.094 151.307 208.447 151.26 208.784C151.127 209.699 150.641 209.807 150.591 210.122C150.455 211.006 145.63 212.835 144.582 212.4C144.076 212.192 144.923 211.226 145.371 210.211C145.377 210.195 145.377 210.138 145.377 210.138L145.501 208.292L145.744 204.658L145.886 202.531L151.794 205.084L151.791 205.087Z" fill="#FF9980"/>
<path id="Vector_185" d="M147.622 210.199L147.692 209.779C147.749 209.438 147.515 209.167 147.19 209.195L145.86 209.306C145.576 209.328 145.324 209.574 145.276 209.87C145.238 210.107 145.185 210.359 145.125 210.483C144.632 211.467 142.308 213.751 143.025 214.029C144.086 214.436 150.821 211.713 150.957 210.826C151.004 210.514 151.124 209.703 151.257 208.785C150.436 209.344 148.709 209.889 147.622 210.195V210.199Z" fill="#3D6151"/>
<path id="Vector_186" d="M151.787 205.103C151.765 205.245 151.592 206.46 151.405 207.747L145.494 208.293L145.737 204.658L151.787 205.1V205.103Z" fill="#FF9980"/>
</g>
<g id="Group_33">
<path id="Vector_187" d="M162.637 204.948C162.637 204.948 162.637 204.954 162.637 204.964C162.615 205.106 162.441 206.321 162.255 207.608C162.205 207.955 162.154 208.308 162.107 208.646C161.974 209.561 161.488 209.668 161.437 209.983C161.302 210.867 156.477 212.697 155.428 212.261C154.923 212.053 155.769 211.088 156.218 210.072C156.224 210.056 156.224 209.999 156.224 209.999L156.347 208.154L156.59 204.519L156.732 202.393L162.64 204.948H162.637Z" fill="#FF9980"/>
<path id="Vector_188" d="M158.472 210.06L158.541 209.64C158.598 209.3 158.365 209.028 158.039 209.057L156.71 209.167C156.426 209.189 156.173 209.435 156.126 209.732C156.088 209.968 156.034 210.221 155.974 210.344C155.482 211.328 153.158 213.612 153.874 213.89C154.935 214.297 161.671 211.574 161.806 210.688C161.854 210.375 161.974 209.565 162.106 208.646C161.285 209.205 159.558 209.751 158.472 210.057V210.06Z" fill="#3D6151"/>
<path id="Vector_189" d="M162.637 204.964C162.615 205.106 162.441 206.321 162.255 207.608L156.344 208.154L156.587 204.52L162.637 204.961V204.964Z" fill="#FF9980"/>
</g>
<path id="Vector_190" d="M159.044 176.989C159.044 176.989 146.628 185.546 145.633 189.313C144.471 193.72 143.704 205.965 143.704 205.965C143.704 205.965 145.112 206.558 147.642 206.467C150.054 206.381 151.996 205.583 151.996 205.583L154.156 193.831C154.156 193.831 164.674 186.682 165.416 185.442C167.69 181.64 165.937 175.491 165.937 175.491L160.752 175.305L159.044 176.986V176.989Z" fill="#3D6151"/>
<path id="Vector_191" d="M165.756 180.188C165.756 180.188 157.111 186.713 156.343 190.117C155.983 191.72 154.076 206.69 154.076 206.69C154.076 206.69 155.383 207.302 158.645 207.189C161.598 207.088 162.738 206.813 162.738 206.813L165.248 194.209C165.248 194.209 172.858 187.243 173.906 185.015C175.902 180.784 174.449 172.316 174.449 172.316L167.035 173.162L165.753 180.191L165.756 180.188Z" fill="#3D6151"/>
<path id="Vector_192" d="M158.615 158.911C161.381 155.658 164.219 155.409 167.143 156.242C168.586 156.652 170.323 157.059 171.062 158.078C173.948 162.063 175.669 163.296 175.881 169.19C175.947 171.083 175.555 178.699 175.555 178.699C175.555 178.699 169.515 179.977 161.728 179.538C158.362 179.349 155.147 178.696 155.147 178.696C155.198 176.456 155.732 169.265 156.085 165.46C156.429 161.772 157.273 160.494 158.618 158.911H158.615Z" fill="#FFE06E"/>
<path id="Vector_193" d="M156.29 167.691C155.03 167.925 149.931 164.956 149.931 164.956C149.931 164.956 150.897 163.385 152.709 161.369C153.483 160.507 154.56 159.283 155.542 158.526C157.8 156.781 160.843 155.696 163.932 155.86L162.47 159.009C162.47 159.009 158.782 167.234 156.293 167.691H156.29Z" fill="#FFE06E"/>
<path id="Vector_194" d="M173.174 159.113C175.192 160.012 175.943 159.198 177.601 160.871C178.4 161.675 180.184 165.105 181.532 167.928C182.416 169.777 183.313 170.79 182.887 172.295C182.236 174.601 180.977 175.403 180.07 175.459C178.564 175.551 177.304 174.746 176.404 173.528C175.669 172.531 174.402 170.048 174.257 169.664C172.716 165.647 172.385 164.78 170.818 160.442C171.92 159.104 172.176 160.524 173.174 159.113Z" fill="#FF9980"/>
<path id="Vector_195" d="M173.509 169.9C173.509 169.9 179.256 168.77 181.498 167.704C181.498 167.704 180.099 163.571 177.248 160.299C175.47 158.261 172.038 156.052 167.987 155.977L166.521 161.372L173.509 169.896V169.9Z" fill="#FFE06E"/>
<g id="Group_34">
<path id="Vector_196" d="M165.984 147.156C164.494 146.976 163.976 146.563 162.956 148.336C162.261 149.541 162.157 150.857 162.141 151.724C162.113 153.232 163.158 154.583 163.461 154.756L163.325 155.823C163.294 156.062 163.401 156.309 163.606 156.454C163.919 156.671 164.462 156.943 165.28 157.009C166.426 157.1 167.531 157.025 168.406 156.274L168.469 155.113C168.469 155.113 169.931 153.538 170.064 151.702C170.073 151.585 170.08 151.469 170.086 151.352C170.196 148.863 168.627 147.478 166.464 147.219L165.984 147.162V147.156Z" fill="#FF9980"/>
<path id="Vector_197" d="M167.673 149.115C167.503 149.146 167.332 149.181 167.162 149.222C166.596 149.354 166.069 149.641 165.497 149.783C164.38 150.058 163.028 150.036 161.929 149.544C161.418 149.313 160.938 148.916 161.317 148.335C161.506 148.042 161.778 147.922 161.983 147.66C162.185 147.405 162.283 147.076 162.526 146.849C162.741 146.647 163.044 146.556 163.341 146.543C163.704 146.527 164.042 146.609 164.402 146.578C164.844 146.537 165.314 146.521 165.756 146.543C166.701 146.587 167.869 147.117 168.317 147.991C168.437 148.225 168.541 148.607 168.384 148.853C168.241 149.077 167.916 149.077 167.676 149.121L167.673 149.115Z" fill="#A36D2E"/>
<path id="Vector_198" d="M171.276 150.661C171.295 150.267 171.134 149.844 170.796 149.601C170.496 149.383 170.095 149.355 169.811 149.121C169.66 148.995 169.549 148.828 169.41 148.689C169.167 148.452 168.839 148.317 168.507 148.273C167.642 148.153 166.786 148.686 166.859 149.62C166.919 150.377 167.475 151.188 168.097 151.636C168.829 152.166 169.587 152.371 170.427 152.065C170.995 151.86 171.251 151.241 171.28 150.658L171.276 150.661Z" fill="#A36D2E"/>
<g id="Group_35">
<path id="Vector_199" d="M164.847 151.019C164.847 151.117 164.768 151.19 164.67 151.183C164.572 151.177 164.493 151.095 164.493 151C164.493 150.903 164.572 150.83 164.67 150.836C164.768 150.843 164.847 150.925 164.847 151.019Z" fill="#332722"/>
<path id="Vector_200" d="M167.114 151.615C167.114 151.713 167.035 151.785 166.938 151.779C166.84 151.773 166.761 151.691 166.761 151.596C166.761 151.498 166.84 151.426 166.938 151.432C167.035 151.438 167.114 151.52 167.114 151.615Z" fill="#332722"/>
<path id="Vector_201" d="M165.911 151.419C165.886 151.58 165.81 151.612 165.706 151.59C165.605 151.571 165.516 151.504 165.541 151.344C165.567 151.183 165.668 151.069 165.769 151.088C165.87 151.107 165.933 151.255 165.908 151.416L165.911 151.419Z" fill="#FF7361"/>
<path id="Vector_202" d="M166.65 152.271C166.492 151.814 165.772 152.581 165.109 152.085C164.664 151.751 164.364 152.293 164.705 152.641C165.163 153.278 166.887 152.966 166.647 152.275L166.65 152.271Z" fill="#752F2F"/>
</g>
<path id="Vector_203" d="M164.159 151.777C164.159 152.112 163.888 152.371 163.547 152.355C163.206 152.339 162.931 152.055 162.928 151.721C162.928 151.386 163.199 151.127 163.54 151.143C163.881 151.159 164.156 151.443 164.159 151.777Z" fill="#FF8466"/>
<path id="Vector_204" d="M168.57 152.799C168.57 153.133 168.299 153.392 167.958 153.376C167.617 153.36 167.342 153.077 167.339 152.742C167.339 152.408 167.61 152.149 167.951 152.165C168.292 152.181 168.567 152.464 168.57 152.799Z" fill="#FF8466"/>
</g>
<path id="Vector_205" d="M177.689 170.125C178.678 167.513 179.474 164.755 180.686 162.269C181.03 161.562 182.319 162.297 182.824 162.442C182.934 165.67 183.566 169.387 182.827 172.475C182.593 173.45 180.538 172.049 179.982 171.718C179.423 171.387 178.353 170.532 177.689 170.125Z" fill="#FF9980"/>
<path id="Vector_206" d="M188.072 150.87L179.117 164.729L178.921 164.496L187.904 150.756C187.942 150.699 188.021 150.696 188.065 150.747C188.094 150.781 188.097 150.832 188.075 150.87H188.072Z" fill="#474341"/>
<g id="Group_36">
<g id="Group_37">
<g id="Group_38">
<path id="Vector_207" d="M146.252 154.175C146.457 153.973 147.148 154.339 147.802 154.992C148.456 155.645 148.819 156.342 148.614 156.544C148.408 156.746 147.717 156.38 147.063 155.727C146.41 155.074 146.046 154.377 146.252 154.175Z" fill="#E3E3E3"/>
<path id="Vector_208" d="M146.003 154.425C146.208 154.223 146.899 154.589 147.553 155.242C148.207 155.895 148.57 156.592 148.365 156.794C148.159 156.996 147.468 156.63 146.814 155.977C146.161 155.324 145.797 154.627 146.003 154.425Z" fill="#B8B8B8"/>
</g>
<path id="Vector_209" d="M141.124 158.285L144.793 154.364C144.863 154.291 144.961 154.25 145.059 154.256L146.252 154.31C146.252 154.31 146.874 154.503 147.762 155.392C148.611 156.244 148.501 156.825 148.501 156.825L148.513 157.62C148.513 157.705 148.485 157.787 148.428 157.85L144.986 161.822L144.973 161.838L143.47 162.204L140.647 159.374L141.121 158.285H141.124Z" fill="#FC5044"/>
<path id="Vector_210" d="M144.199 156.383C144.827 155.758 145.847 155.764 146.476 156.395C147.104 157.026 147.107 158.045 146.476 158.67C145.844 159.295 144.827 159.288 144.199 158.657C143.571 158.026 143.567 157.007 144.199 156.383Z" fill="#FAFAFA"/>
<path id="Vector_211" d="M145.349 158.952H145.343C144.961 158.952 144.604 158.801 144.336 158.529C144.067 158.258 143.919 157.901 143.919 157.52C143.919 157.138 144.067 156.781 144.336 156.513C144.892 155.961 145.795 155.964 146.353 156.523C146.622 156.794 146.77 157.151 146.77 157.532C146.77 157.914 146.622 158.271 146.353 158.539C146.085 158.804 145.731 158.952 145.353 158.952H145.349ZM145.33 156.163C144.983 156.163 144.636 156.296 144.374 156.557C144.118 156.813 143.976 157.157 143.976 157.52C143.976 157.886 144.118 158.23 144.377 158.488C144.636 158.747 144.977 158.889 145.343 158.892H145.349C145.712 158.892 146.05 158.753 146.306 158.498C146.562 158.242 146.704 157.898 146.704 157.536C146.704 157.17 146.562 156.826 146.303 156.567C146.035 156.299 145.681 156.163 145.33 156.163Z" fill="#5093BD"/>
<path id="Vector_212" d="M141.124 158.286L141.152 158.258C141.973 158.592 142.715 159.037 143.511 159.832C144.146 160.466 144.645 161.154 144.989 161.823L144.976 161.839L143.473 162.205L140.65 159.375L141.124 158.286Z" fill="#CF493F"/>
<g id="Group_39">
<path id="Vector_213" d="M143.47 162.205L143.252 162.42L140.433 159.593L140.65 159.375L141.617 160.044L143.233 161.716L143.47 162.205Z" fill="#CCCCCC"/>
<path id="Vector_214" d="M140.65 159.375C140.827 159.201 141.601 159.69 142.378 160.473C143.158 161.255 143.644 162.028 143.47 162.205C143.293 162.378 142.52 161.889 141.743 161.107C140.963 160.324 140.477 159.551 140.65 159.375Z" fill="#CCCCCC"/>
<path id="Vector_215" d="M140.433 159.592C140.609 159.418 141.383 159.907 142.16 160.69C142.94 161.472 143.426 162.245 143.252 162.422C143.076 162.595 142.302 162.106 141.525 161.324C140.745 160.541 140.259 159.768 140.433 159.592Z" fill="#E3E3E3"/>
</g>
</g>
<path id="Vector_216" d="M143.107 156.412C143.31 156.44 143.433 156.437 143.632 156.39C143.793 156.352 143.982 156.308 144.137 156.109C144.32 155.872 144.121 155.683 144.055 155.705C144.358 155.611 144.661 155.582 144.816 155.292C144.835 155.257 144.851 155.223 144.854 155.188C144.866 155.074 144.762 154.976 144.648 154.948C144.538 154.92 144.421 154.879 144.307 154.888C144.124 154.904 143.935 154.888 143.758 154.932C143.606 154.967 143.439 155.074 143.332 155.191C143.25 155.279 143.221 155.355 143.158 155.428C143.076 155.519 143.006 155.56 142.877 155.617C142.53 155.778 142.302 156.128 142.208 156.365C142.17 156.462 141.939 156.63 141.882 156.715C141.807 156.832 141.848 156.996 141.775 157.097C141.756 157.125 141.608 157.204 141.529 157.396C141.478 157.519 141.418 157.835 141.513 157.93C141.513 157.93 141.608 157.873 141.639 157.86C141.86 157.769 142.151 157.756 142.334 157.611C142.754 157.28 142.593 157.134 142.59 157.134C142.798 157.141 143.104 157.109 143.215 156.933C143.325 156.756 143.398 156.478 143.104 156.412H143.107Z" fill="#FF9980"/>
</g>
<path id="Vector_217" d="M171.039 150.598C171.166 150.607 171.292 150.61 171.421 150.607C171.393 150.21 171.115 149.822 171.058 149.418C171.036 149.244 171.049 149.068 171.058 148.894C171.093 148.427 171.134 147.96 171.166 147.493C171.191 147.105 171.014 146.922 170.695 146.704C170.016 146.238 169.29 145.837 168.529 145.509C168.002 145.282 167.405 145.01 166.833 144.919C166.287 144.83 165.795 145.165 165.349 145.433C164.374 146.014 163.363 146.26 162.283 146.547C162.447 146.831 162.987 147.061 163.265 147.241C163.657 147.49 164.055 147.73 164.456 147.963C165.93 148.809 167.49 149.648 169.107 150.184C169.742 150.393 170.376 150.563 171.036 150.607L171.039 150.598Z" fill="#2A6149"/>
</g>
<path id="Vector_218" d="M182.688 157.141C182.688 157.141 182.666 157.128 182.657 157.125C182.502 157.043 182.303 156.923 182.126 157.012C182.057 157.046 182.006 157.109 181.965 157.172C181.914 157.248 181.87 157.327 181.832 157.409C181.791 157.497 181.763 157.608 181.817 157.69C181.867 157.762 181.952 157.769 182.025 157.8C182.148 157.854 182.265 157.926 182.382 157.99C182.789 158.204 183.19 158.428 183.585 158.655C183.891 158.832 184.276 159.23 184.598 158.895C184.7 158.788 185.078 158.438 184.807 158.308C184.33 158.046 183.85 157.785 183.373 157.519C183.146 157.393 182.919 157.267 182.688 157.141Z" fill="#31A35D"/>
<path id="Vector_219" d="M186.594 151.396C186.594 151.396 186.575 151.389 186.566 151.386C186.421 151.345 186.234 151.282 186.111 151.389C186.064 151.43 186.035 151.493 186.016 151.557C185.994 151.629 185.975 151.705 185.966 151.784C185.953 151.869 185.956 151.967 186.016 152.027C186.073 152.08 186.143 152.068 186.212 152.08C186.323 152.102 186.433 152.143 186.544 152.172C186.923 152.276 187.299 152.393 187.671 152.513C187.962 152.604 188.363 152.869 188.546 152.525C188.603 152.415 188.83 152.042 188.58 151.986C188.132 151.853 187.687 151.721 187.238 151.588C187.024 151.525 186.812 151.459 186.597 151.396H186.594Z" fill="#F26D3D"/>
<path id="Vector_220" d="M183.525 155.519C183.436 155.478 183.329 155.469 183.253 155.532C183.057 155.696 182.416 156.16 182.748 156.447C182.858 156.544 183 156.601 183.136 156.661C183.72 156.92 184.273 157.251 184.778 157.646C184.917 157.753 185.072 157.873 185.246 157.86C185.391 157.851 185.514 157.75 185.612 157.642C185.763 157.469 185.877 157.213 185.763 157.011C185.703 156.904 185.59 156.838 185.482 156.775C185.208 156.617 184.92 156.478 184.639 156.333C184.368 156.194 184.156 156.002 183.907 155.828C183.787 155.746 183.705 155.645 183.591 155.557C183.572 155.541 183.55 155.529 183.528 155.516L183.525 155.519Z" fill="#8A4D34"/>
<path id="Vector_221" d="M185.631 152.387C185.41 152.46 185.262 152.678 185.132 152.876C185.022 153.053 184.706 153.347 184.965 153.53C185.085 153.615 185.23 153.659 185.372 153.703C185.937 153.886 186.477 154.135 186.986 154.441C187.248 154.599 187.339 154.634 187.586 154.416C187.851 154.179 188.185 153.599 187.841 153.306C187.709 153.192 187.532 153.145 187.368 153.088C187.052 152.981 186.746 152.832 186.465 152.652C186.225 152.501 185.959 152.315 185.681 152.375C185.666 152.378 185.65 152.384 185.634 152.387H185.631Z" fill="#8A4D34"/>
<path id="Vector_222" d="M181.308 158.909C182.057 158.742 182.998 159.259 183.49 159.786C184.106 160.439 184.153 161.212 183.683 161.95C183.152 162.783 182.745 163.269 182.11 163.474C181.141 163.783 180.563 163.31 180.443 162.114C180.374 161.417 180.617 161.222 180.617 161.222C180.509 160.833 180.759 160.537 180.993 160.42C180.993 160.42 180.983 159.881 181.504 159.66C181.735 159.562 180.494 159.231 181.305 158.912L181.308 158.909Z" fill="#FF9980"/>
<g id="Group_40">
<path id="Vector_223" d="M186.234 156.495L185.909 156.302L183.954 155.16L183.724 155.024C183.724 155.024 184.286 154.008 185.214 154.374C186.768 154.983 186.234 156.495 186.234 156.495Z" fill="#FCE08B"/>
<path id="Vector_224" d="M185.934 156.308L185.877 156.295C185.947 156.011 186.095 155.061 185.072 154.743C184.456 154.55 184.077 155.027 183.973 155.175L183.926 155.143C184.033 154.986 184.434 154.484 185.088 154.689C186.161 155.024 186.007 156.014 185.931 156.311L185.934 156.308Z" fill="#FFCB82"/>
<path id="Vector_225" d="M185.773 156.21H185.716C185.741 155.816 185.637 155.308 185.002 155.099C184.636 154.98 184.371 155.153 184.213 155.323L184.172 155.286C184.342 155.106 184.63 154.92 185.021 155.049C185.725 155.279 185.795 155.879 185.773 156.216V156.21Z" fill="#FFCB82"/>
</g>
</g>
<path id="Vector_226" d="M143.758 213.582C146.221 213.017 148.548 211.991 150.663 210.616C150.714 210.581 150.667 210.499 150.616 210.534C148.51 211.906 146.189 212.928 143.735 213.49C143.675 213.503 143.701 213.594 143.761 213.582H143.758Z" fill="#404040"/>
<path id="Vector_227" d="M154.607 213.443C157.07 212.878 159.397 211.853 161.513 210.477C161.563 210.442 161.516 210.36 161.466 210.395C159.359 211.768 157.039 212.79 154.585 213.351C154.525 213.364 154.55 213.455 154.61 213.443H154.607Z" fill="#404040"/>
<path id="Vector_228" d="M156.164 191.47C156.388 190.397 156.672 189.312 157.099 188.302C157.402 187.583 157.926 187.009 158.441 186.431C159.849 184.841 161.355 183.336 162.858 181.841C163.256 181.446 163.654 181.052 164.055 180.661C164.099 180.617 164.033 180.55 163.989 180.595C162.909 181.645 161.845 182.712 160.796 183.791C160.016 184.592 159.24 185.4 158.491 186.236C158.033 186.747 157.506 187.277 157.184 187.889C156.612 188.968 156.322 190.258 156.072 191.451C156.06 191.511 156.151 191.536 156.164 191.476V191.47Z" fill="#404040"/>
<path id="Vector_229" d="M149.704 166.12C150.364 167.076 151.02 168.032 151.68 168.984C151.775 169.12 151.87 169.259 151.964 169.395C151.987 169.426 152.034 169.395 152.015 169.366C151.355 168.41 150.698 167.454 150.038 166.501C149.944 166.366 149.849 166.227 149.754 166.091C149.732 166.06 149.685 166.091 149.704 166.12Z" fill="#404040"/>
<path id="Vector_230" d="M156.315 161.706C156.097 163.501 155.958 165.296 155.911 167.101C155.911 167.167 156.012 167.167 156.015 167.101C156.06 165.293 156.202 163.498 156.42 161.706C156.429 161.64 156.325 161.64 156.315 161.706Z" fill="#404040"/>
<path id="Vector_231" d="M171.659 163.533C172.123 165.244 172.584 166.954 173.048 168.66L173.247 169.392C173.266 169.455 173.364 169.43 173.348 169.364C172.884 167.654 172.423 165.944 171.959 164.237C171.893 163.994 171.826 163.748 171.76 163.505C171.741 163.442 171.643 163.467 171.659 163.533Z" fill="#404040"/>
<path id="Vector_232" d="M162.928 149.138C163.686 149.333 164.485 149.333 165.239 149.119C165.299 149.103 165.274 149.011 165.214 149.027C164.475 149.235 163.695 149.239 162.953 149.046C162.893 149.03 162.868 149.122 162.928 149.138Z" fill="#404040"/>
<path id="Vector_233" d="M167.652 149.806C167.778 150.415 168.195 150.897 168.763 151.137C168.82 151.159 168.845 151.068 168.788 151.046C168.248 150.818 167.863 150.355 167.743 149.78C167.731 149.72 167.639 149.746 167.652 149.806Z" fill="#404040"/>
<path id="Vector_234" d="M168.949 150.254C169.227 150.601 169.593 150.873 170.003 151.04C170.06 151.062 170.086 150.971 170.029 150.949C169.631 150.788 169.284 150.523 169.015 150.188C168.977 150.141 168.911 150.207 168.949 150.254Z" fill="#404040"/>
<path id="Vector_235" d="M178.009 169.178C177.8 169.67 177.592 170.162 177.384 170.654C177.355 170.724 177.324 170.796 177.295 170.866C177.282 170.901 177.33 170.929 177.346 170.894C177.554 170.402 177.762 169.91 177.971 169.418L178.059 169.206C178.072 169.172 178.024 169.143 178.009 169.178Z" fill="#404040"/>
<path id="Vector_236" d="M141.907 157.147C142.071 157.077 142.254 157.071 142.422 157.125C142.456 157.137 142.472 157.081 142.437 157.071C142.254 157.011 142.055 157.024 141.878 157.099C141.844 157.115 141.875 157.163 141.907 157.15V157.147Z" fill="#404040"/>
<path id="Vector_237" d="M142.312 156.399C142.545 156.301 142.817 156.32 143.035 156.449C143.066 156.468 143.095 156.418 143.063 156.399C142.833 156.263 142.542 156.241 142.296 156.342C142.261 156.355 142.277 156.412 142.312 156.396V156.399Z" fill="#404040"/>
<path id="Vector_238" d="M143.151 155.607C143.42 155.579 143.691 155.585 143.96 155.629C143.994 155.636 144.01 155.582 143.975 155.576C143.704 155.532 143.426 155.522 143.151 155.554C143.117 155.557 143.113 155.614 143.151 155.611V155.607Z" fill="#404040"/>
<path id="Vector_239" d="M164.102 155.074C164.954 155.43 165.902 155.509 166.798 155.301C166.865 155.285 166.836 155.184 166.77 155.2C165.889 155.405 164.961 155.323 164.127 154.973C164.067 154.948 164.039 155.048 164.099 155.074H164.102Z" fill="#404040"/>
<path id="Vector_240" d="M165.283 146.184C166.84 147.035 168.441 147.808 170.077 148.496C170.134 148.518 170.159 148.427 170.102 148.405C168.473 147.72 166.881 146.95 165.331 146.102C165.277 146.073 165.23 146.155 165.283 146.184Z" fill="#404040"/>
<path id="Vector_241" d="M183.014 160.789C182.752 160.284 182.303 159.887 181.814 159.612C181.757 159.581 181.706 159.669 181.763 159.701C182.24 159.969 182.673 160.35 182.925 160.843C182.957 160.899 183.042 160.849 183.014 160.792V160.789Z" fill="#404040"/>
<path id="Vector_242" d="M182.315 161.366C182.11 161.006 181.791 160.716 181.415 160.543C181.355 160.514 181.305 160.603 181.365 160.631C181.725 160.798 182.028 161.073 182.227 161.417C182.258 161.473 182.347 161.423 182.315 161.366Z" fill="#404040"/>
<path id="Vector_243" d="M181.624 162.121C181.425 161.796 181.166 161.512 180.86 161.285C180.806 161.247 180.755 161.335 180.809 161.373C181.1 161.591 181.346 161.865 181.535 162.174C181.57 162.231 181.658 162.181 181.624 162.124V162.121Z" fill="#404040"/>
</g>
</g>
</g>
</g>
</svg>
